<svg width="132" height="32" viewBox="0 0 132 32" fill="none" xmlns="http://www.w3.org/2000/svg">
<g clip-path="url(#clip0_1_1638)">
<path d="M113.182 0.00012207C111.112 0.00012207 109.419 1.67192 109.424 3.74202C109.419 5.82259 111.127 7.48915 113.203 7.48391C115.273 7.48915 116.929 5.82259 116.929 3.74202C116.924 1.67716 115.252 0.00012207 113.182 0.00012207ZM45.2513 0.063011C43.1707 0.063011 41.4937 1.71909 41.4937 3.78918C41.4937 5.86976 43.1759 7.56252 45.2513 7.56776C47.3161 7.56776 48.9932 5.86976 48.9932 3.78918C48.9984 1.71909 47.3161 0.063011 45.2513 0.063011ZM101.149 4.26609C99.0842 4.26609 97.3915 5.93789 97.3915 8.00798C97.3915 10.0781 99.079 11.7656 101.149 11.7656C103.224 11.7656 104.891 10.0833 104.891 8.00798C104.896 5.94313 103.224 4.26609 101.149 4.26609ZM125.288 4.26609C123.223 4.26609 121.53 5.93789 121.53 8.00798C121.53 10.0781 123.223 11.7656 125.288 11.7656C127.369 11.7656 129.014 10.0781 129.014 8.00798C129.014 5.93789 127.369 4.26085 125.288 4.26609ZM57.0901 4.32898C55.0253 4.32898 53.3325 6.02174 53.3325 8.08659C53.3325 10.1619 55.02 11.8285 57.0901 11.8285C59.1497 11.8285 60.832 10.1567 60.832 8.08659C60.832 6.02174 59.155 4.32898 57.0901 4.32898ZM33.1923 4.42855C31.1275 4.42331 29.4504 6.09511 29.4504 8.15996V8.17569C29.4504 10.251 31.117 11.9385 33.1923 11.9333C35.2519 11.9333 36.9342 10.2458 36.9342 8.17569C36.9342 6.10035 35.2519 4.42855 33.1923 4.42855ZM114.466 13.1701C114.466 13.1701 107.019 13.2173 106.93 13.2173C105.661 13.2173 104.587 14.2969 104.587 15.5599L104.571 29.102H104.587C104.645 30.7057 105.986 32.0001 107.6 32.0001C109.23 32.0001 110.572 30.7057 110.63 29.102V24.3958C110.63 24.3958 113.606 24.3801 113.706 24.3801C114.854 24.3801 115.807 23.4682 115.807 22.3152C115.807 21.157 114.859 20.2137 113.706 20.2137H110.63V18.9611H114.471C116.064 18.9611 117.343 17.6876 117.338 16.0945C117.332 14.517 116.059 13.1701 114.466 13.1701ZM128.17 13.1701C128.17 13.1701 120.723 13.2173 120.634 13.2173C119.355 13.2173 118.292 14.2916 118.292 15.5599V29.102H118.307C118.36 30.7057 119.68 32.0001 121.305 32.0001C122.94 32.0001 124.25 30.7109 124.303 29.102H124.318V24.3958C124.318 24.3958 127.29 24.3801 127.395 24.3801C128.542 24.3801 129.496 23.4682 129.496 22.3152C129.496 21.157 128.542 20.2137 127.395 20.2137H124.313V18.9611H128.155C129.737 18.9611 131.021 17.6876 131.021 16.0945C131.021 14.517 129.753 13.1649 128.17 13.1701ZM60.7639 13.2016C59.1759 13.2016 57.8972 14.4803 57.8972 16.0525C57.8972 16.1573 57.9182 16.2674 57.9286 16.3775L57.9129 29.0758L57.9286 29.2225C58.0072 30.7214 59.2493 31.9268 60.7796 31.9268C62.3675 31.9268 63.6463 30.6532 63.6463 29.0758C63.6463 28.8924 63.6306 28.7194 63.5991 28.557V24.7889L67.8651 30.517C67.928 30.6113 67.9961 30.7057 68.059 30.8105L68.0747 30.8419C68.625 31.4813 69.4583 31.8848 70.3702 31.8848C72.0315 31.8848 73.3679 30.5432 73.3679 28.8871C73.3731 28.3106 73.2106 27.7446 72.8962 27.2572L72.849 27.1944C72.8071 27.1262 72.7704 27.0581 72.718 27.0005L68.8608 21.8226L72 18.0283H71.9843C72.3931 17.5304 72.6499 16.8963 72.6499 16.1888C72.6446 14.5746 71.3345 13.2435 69.7203 13.2435C68.6617 13.2435 67.7446 13.8042 67.231 14.6428L63.5991 19.024V16.4823C63.6148 16.3408 63.6306 16.1888 63.6306 16.042C63.6306 14.4803 62.3466 13.2016 60.7639 13.2016ZM2.54443 13.2173C1.14515 13.2173 0.0236263 14.3598 0.0236263 15.7381C0.0236263 15.7381 0.00790405 29.1858 0.00790405 29.4112C0.00790405 30.8419 1.09798 31.9163 2.5287 31.9163L9.03771 31.932C12.2346 31.932 14.834 29.3483 14.834 26.1514C14.834 24.3434 14.0269 22.7345 12.7324 21.6759C13.4923 20.7744 13.9693 19.6058 13.9693 18.3218C13.9745 15.5127 11.6424 13.2068 8.80712 13.212H2.54443V13.2173ZM46.4933 13.3011C41.3784 13.3011 37.2172 17.4571 37.2172 22.5773C37.2172 27.6975 41.3784 31.8691 46.4933 31.8691C51.6135 31.8691 55.7747 27.6975 55.7694 22.5773C55.7694 17.4571 51.6135 13.3011 46.4933 13.3011ZM25.5094 13.3326C20.3839 13.3326 16.2437 17.499 16.249 22.6297C16.249 27.7446 20.3787 31.8953 25.5094 31.8901C30.6401 31.8901 34.7855 27.7446 34.7855 22.6297C34.7855 17.5042 30.6401 13.3326 25.5094 13.3326ZM93.8068 13.3326C88.6656 13.3326 84.494 17.5147 84.494 22.6611C84.494 27.797 88.6604 31.9739 93.8068 31.9739C98.9427 31.9739 103.12 27.797 103.12 22.6611C103.12 17.5147 98.948 13.3326 93.8068 13.3326ZM5.06522 17.4308H7.39212C8.16775 17.4308 8.79139 18.044 8.79139 18.8301C8.79139 19.5953 8.16251 20.198 7.39212 20.198C7.31874 20.198 5.06522 20.2137 5.06522 20.2137V17.4308ZM78.2994 18.6519C76.2293 18.6519 74.5628 20.3395 74.5575 22.4096C74.5628 24.4797 76.2293 26.1672 78.2994 26.1672C80.3747 26.1672 82.057 24.4797 82.057 22.4096C82.0518 20.3447 80.3643 18.6519 78.2994 18.6519ZM46.4933 18.7358C48.6211 18.7358 50.3505 20.46 50.3505 22.593C50.3505 24.7155 48.6211 26.4345 46.4933 26.4345C44.3656 26.4345 42.6519 24.705 42.6519 22.5773C42.6466 20.46 44.3603 18.741 46.4776 18.7358H46.4933ZM25.5094 18.7672C27.6319 18.7672 29.3666 20.4914 29.3666 22.6244C29.3666 24.7522 27.6371 26.4711 25.5094 26.4659C23.4026 26.4711 21.6731 24.7522 21.6679 22.6244C21.6679 20.4914 23.3974 18.7672 25.5094 18.7672ZM93.8068 18.7987C95.9398 18.7987 97.664 20.5124 97.664 22.6559C97.664 24.7836 95.9345 26.5131 93.8068 26.5131C91.6738 26.5131 89.9444 24.7836 89.9496 22.6559C89.9444 20.5281 91.6633 18.8039 93.7911 18.7987H93.8068ZM5.06522 24.1704L8.02625 24.1862C8.83332 24.1862 9.49365 24.8255 9.49365 25.6326C9.48841 26.4502 8.83856 27.1 8.02625 27.1H5.08095L5.06522 24.1704ZM128.039 27.1C126.687 27.1 125.613 28.1849 125.613 29.5422C125.618 30.9048 126.682 31.9844 128.039 31.9844C129.391 31.9844 130.482 30.8996 130.482 29.5422C130.487 28.1953 129.397 27.1053 128.05 27.1C128.05 27.1 128.045 27.1 128.039 27.1ZM128.039 27.3463C129.245 27.3463 130.235 28.3264 130.235 29.5422C130.235 30.7528 129.245 31.7381 128.039 31.7381C126.829 31.7381 125.859 30.7476 125.859 29.5422C125.859 28.3264 126.829 27.3463 128.039 27.3463ZM126.934 28.0958V30.9258H127.52V29.82H128.123C128.296 29.82 128.422 29.8409 128.48 29.9038C128.542 29.9562 128.579 30.082 128.579 30.2602V30.5222C128.579 30.6113 128.59 30.6847 128.595 30.7685C128.605 30.8157 128.626 30.8734 128.642 30.931H129.292V30.8681C129.234 30.8367 129.192 30.7633 129.177 30.6899C129.166 30.6428 129.161 30.5589 129.161 30.4279V30.2497C129.161 30.0506 129.135 29.9038 129.077 29.8095C129.025 29.7099 128.92 29.6365 128.799 29.5841C128.946 29.5317 129.077 29.4374 129.14 29.3064C129.208 29.1806 129.234 29.0496 129.239 28.9133C129.239 28.798 129.224 28.7089 129.192 28.6198C129.15 28.5307 129.093 28.4521 129.03 28.3735C128.962 28.2844 128.867 28.2215 128.768 28.1796C128.658 28.1325 128.521 28.1062 128.328 28.0958H126.934ZM127.52 28.5989H128.202C128.333 28.5989 128.417 28.6146 128.48 28.646C128.595 28.7037 128.658 28.8137 128.658 28.9867C128.658 29.1387 128.59 29.2435 128.48 29.2959C128.411 29.3273 128.322 29.3431 128.186 29.3431H127.52V28.5989Z" fill="#CCCCCC"/>
</g>
<defs>
<clipPath id="clip0_1_1638">
<rect width="131.019" height="32" fill="white" transform="translate(0.00268555 0.00012207)"/>
</clipPath>
</defs>
</svg>
