<svg width="67" height="32" viewBox="0 0 67 32" fill="none" xmlns="http://www.w3.org/2000/svg">
<path fill-rule="evenodd" clip-rule="evenodd" d="M1.50474 4.43049H5.71065C5.3339 4.17364 4.62464 3.84656 3.45715 3.84656C2.61209 3.84656 1.97926 4.08246 1.50474 4.43049ZM6.4168 4.43049H10.8159C10.2976 4.08246 9.57201 3.84656 8.55856 3.84656C7.48845 3.84656 6.79588 4.17364 6.4168 4.43049ZM0.911102 5.01443H11.4445C11.2676 4.78735 11.0554 4.59018 10.8159 4.43049H6.4168C6.17198 4.59617 6.0579 4.73236 6.0579 4.73236C6.0579 4.73236 5.95315 4.59617 5.71065 4.43049H1.50474C1.28039 4.59626 1.08054 4.79284 0.911102 5.01443Z" fill="#CCCCCC"/>
<path fill-rule="evenodd" clip-rule="evenodd" d="M0.559113 5.57877H11.7866C11.6948 5.37832 11.5801 5.18915 11.4448 5.01501H0.911027C0.771348 5.1966 0.655336 5.38788 0.559113 5.57877Z" fill="#CCCCCC"/>
<path fill-rule="evenodd" clip-rule="evenodd" d="M0.318835 6.16206H11.991C11.9408 5.96153 11.8722 5.76606 11.7861 5.57812H0.559006C0.458902 5.77678 0.380526 5.97505 0.318835 6.16206ZM0.166351 6.74639H2.85285C3.0259 6.54541 3.31108 6.36382 3.77707 6.36382C4.24344 6.36382 4.50883 6.54579 4.65938 6.74639H7.63688C7.81264 6.54541 8.10286 6.36382 8.57777 6.36382C9.0263 6.36382 9.29363 6.54579 9.45271 6.74639H12.0895C12.0716 6.54949 12.0386 6.35426 11.9906 6.16245H0.318835C0.256069 6.35378 0.205145 6.5488 0.166351 6.74639Z" fill="#CCCCCC"/>
<path fill-rule="evenodd" clip-rule="evenodd" d="M0.0961958 7.31035H2.59685V7.26999C2.59685 7.26999 2.63953 6.99413 2.85293 6.74658H0.166423C0.10512 7.06125 0.0961958 7.26999 0.0961958 7.26999V7.31035ZM4.85772 7.31035H7.37854V7.26999C7.37854 7.26999 7.42161 6.99413 7.63772 6.74658H4.66022C4.77277 6.89969 4.84121 7.08072 4.8581 7.26999V7.31035H4.85772ZM9.6786 7.31035H12.0993V7.26999C12.0993 7.26999 12.1187 7.06086 12.09 6.74658H9.45317C9.64795 6.99413 9.6786 7.26999 9.6786 7.26999V7.31035ZM0.0950317 7.89428H2.59685V7.31035H0.0961958L0.0950317 7.89428ZM4.85772 7.89428H7.37854V7.31035H4.85772V7.89428ZM9.6786 7.89428H12.0993V7.31035H9.6786V7.89428Z" fill="#CCCCCC"/>
<path fill-rule="evenodd" clip-rule="evenodd" d="M0.0939286 8.47896H2.5973V7.89502H0.0954808L0.0939286 8.47896ZM4.85778 8.47896H7.3786V7.89502H4.85778V8.47896ZM9.67866 8.47896H12.0994V7.89502H9.67866V8.47896ZM0.0923767 9.04272H2.59691V8.47896H0.0935408L0.0923767 9.04272ZM4.85778 9.04272H7.3786V8.47896H4.85778V9.04272ZM9.67866 9.04272H12.0994V8.47896H9.67866V9.04272Z" fill="#CCCCCC"/>
<path fill-rule="evenodd" clip-rule="evenodd" d="M0.0916182 9.62605H2.59731V9.04211H0.0923941L0.0916182 9.62605ZM4.85779 9.62605H7.37862V9.04211H4.85779V9.62605ZM9.67868 9.62605H12.0994V9.04211H9.67868V9.62605ZM0.0904541 10.1898H2.59731V9.62605H0.0916182L0.0904541 10.1898ZM4.85779 10.1898H7.37862V9.62605H4.85779V10.1898ZM9.67868 10.1898H12.0994V9.62605H9.67868V10.1898Z" fill="#CCCCCC"/>
<path fill-rule="evenodd" clip-rule="evenodd" d="M0.0888411 10.7743H2.59686V10.1899H0.0900052L0.0888411 10.7743ZM4.85773 10.7743H7.37856V10.1899H4.85773V10.7743ZM9.67861 10.7743H12.0993V10.1899H9.67861V10.7743ZM0.087677 11.3582H2.59725V10.7743H0.0892289L0.087677 11.3582ZM4.85773 11.3582H7.37856V10.7743H4.85773V11.3582ZM9.67861 11.3582H12.0993V10.7743H9.67861V11.3582Z" fill="#CCCCCC"/>
<path fill-rule="evenodd" clip-rule="evenodd" d="M0.0864563 11.9219H2.5972V11.3582H0.0876204L0.0864563 11.9219ZM4.85768 11.9219H7.3785V11.3582H4.85768V11.9219ZM9.67856 11.9219H12.0993V11.3582H9.67856V11.9219Z" fill="#CCCCCC"/>
<path fill-rule="evenodd" clip-rule="evenodd" d="M0.0853271 12.5062H2.59723V11.9219H0.0864909L0.0853271 12.5062ZM4.85771 12.5062H7.37854V11.9219H4.85771V12.5062ZM9.67859 12.5062H12.0993V11.9219H9.67859V12.5062Z" fill="#CCCCCC"/>
<path fill-rule="evenodd" clip-rule="evenodd" d="M0.0837708 13.0898H2.59723V12.5059H0.085323L0.0837708 13.0898ZM4.85771 13.0898H7.37853V12.5059H4.85771V13.0898ZM9.67859 13.0898H12.0993V12.5059H9.67859V13.0898Z" fill="#CCCCCC"/>
<path fill-rule="evenodd" clip-rule="evenodd" d="M0.0830598 13.6537H2.59729V13.09H0.0838358L0.0830598 13.6537ZM4.85777 13.6537H7.3786V13.09H4.85777V13.6537ZM9.67865 13.6537H12.0994V13.09H9.67865V13.6537ZM0.0815079 14.2377H2.5969V13.6537H0.082672L0.0815079 14.2377ZM4.85777 14.2377H7.3786V13.6537H4.85777V14.2377ZM9.67865 14.2377H12.0994V13.6537H9.67865V14.2377ZM0.0799561 14.822H2.5969V14.2381H0.0815079L0.0799561 14.822ZM4.85777 14.822H7.3786V14.2381H4.85777V14.822ZM9.67865 14.822H12.0994V14.2381H9.67865V14.822Z" fill="#CCCCCC"/>
<path fill-rule="evenodd" clip-rule="evenodd" d="M0.0787703 15.3855H2.59688V14.8218H0.0799344L0.0787703 15.3855ZM4.85775 15.3855H7.37858V14.8218H4.85775V15.3855ZM9.67863 15.3855H12.0994V14.8218H9.67863V15.3855ZM0.0776062 15.9695H2.59688V15.3855H0.0787703L0.0776062 15.9695ZM4.85775 15.9695H7.37858V15.3855H4.85775V15.9695ZM9.67863 15.9695H12.0994V15.3855H9.67863V15.9695Z" fill="#CCCCCC"/>
<path fill-rule="evenodd" clip-rule="evenodd" d="M0.0763855 16.5535H2.59721V15.9696H0.0779378L0.0763855 16.5535ZM4.85769 16.5535H7.37852V15.9696H4.85769V16.5535ZM9.67858 16.5535H12.0993V15.9696H9.67858V16.5535Z" fill="#CCCCCC"/>
<path fill-rule="evenodd" clip-rule="evenodd" d="M0.0751997 17.1171H2.59719V16.5533H0.0763635L0.0751997 17.1171ZM4.85767 17.1171H7.3785V16.5533H4.85767V17.1171ZM9.67855 17.1171H12.0993V16.5533H9.67855V17.1171ZM0.0740356 17.7014H2.59719V17.1171H0.0751997L0.0740356 17.7014ZM4.85767 17.7014H7.3785V17.1171H4.85767V17.7014ZM9.67855 17.7014H12.0993V17.1171H9.67855V17.7014Z" fill="#CCCCCC"/>
<path fill-rule="evenodd" clip-rule="evenodd" d="M0.0725797 18.2653H2.5969V17.7015H0.0737434L0.0725797 18.2653ZM4.85777 18.2653H7.37859V17.7015H4.85777V18.2653ZM9.67865 18.2653H12.0994V17.7015H9.67865V18.2653ZM0.0714156 18.8496H2.59729V18.2653H0.0729674L0.0714156 18.8496ZM4.85777 18.8496H7.37859V18.2653H4.85777V18.8496ZM9.67865 18.8496H12.0994V18.2653H9.67865V18.8496ZM0.0702515 19.4332H2.59729V18.8496H0.0714156L0.0702515 19.4332ZM4.85777 19.4332H7.37859V18.8496H4.85777V19.4332ZM9.67865 19.4332H12.0994V18.8496H9.67865V19.4332Z" fill="#CCCCCC"/>
<path fill-rule="evenodd" clip-rule="evenodd" d="M0.0686385 19.9979H2.59723V19.4333H0.0701903L0.0686385 19.9979ZM4.85771 19.9979H7.37853V19.4333H4.85771V19.9979ZM9.67859 19.9979H12.0993V19.4333H9.67859V19.9979ZM0.0674744 20.5814H2.59684V19.9979H0.0682503L0.0674744 20.5814ZM4.85771 20.5814H7.37853V19.9979H4.85771V20.5814ZM9.67859 20.5814H12.0993V19.9979H9.67859V20.5814Z" fill="#CCCCCC"/>
<path fill-rule="evenodd" clip-rule="evenodd" d="M0.0663407 21.1655H2.59687V20.5812H0.0675048L0.0663407 21.1655ZM4.85774 21.1655H7.37856V20.5812H4.85774V21.1655ZM9.67862 21.1655H12.0993V20.5812H9.67862V21.1655ZM0.0647888 21.7297H2.59687V21.1659H0.0663407L0.0647888 21.7297ZM4.85774 21.7297H7.37856V21.1659H4.85774V21.7297ZM9.67862 21.7297H12.0993V21.1659H9.67862V21.7297Z" fill="#CCCCCC"/>
<path fill-rule="evenodd" clip-rule="evenodd" d="M0.0639954 22.3137H2.59724V21.7294H0.0651595L0.0639954 22.3137ZM4.85772 22.3137H7.37855V21.7294H4.85772V22.3137ZM9.6786 22.3137H12.0993V21.7294H9.6786V22.3137Z" fill="#CCCCCC"/>
<path fill-rule="evenodd" clip-rule="evenodd" d="M0.0623824 22.8969H2.59679V22.3134H0.0635461L0.0623824 22.8969ZM4.85766 22.8969H7.37848V22.3134H4.85766V22.8969ZM9.67854 22.8969H12.0993V22.3134H9.67854V22.8969ZM0.0612183 23.4607H2.59679V22.8969H0.0623824L0.0612183 23.4607ZM4.85766 23.4607H7.37848V22.8969H4.85766V23.4607ZM9.67854 23.4607H12.0993V22.8969H9.67854V23.4607Z" fill="#CCCCCC"/>
<path fill-rule="evenodd" clip-rule="evenodd" d="M0.0600671 24.0453H2.5968V23.4609H0.0612312L0.0600671 24.0453ZM4.85767 24.0453H7.3785V23.4609H4.85767V24.0453ZM9.67855 24.0453H12.0993V23.4609H9.67855V24.0453ZM0.0592911 24.6296H2.59719V24.0453H0.0604552L0.0592911 24.6296ZM4.85767 24.6296H7.3785V24.0453H4.85767V24.6296ZM9.67855 24.6296H12.0993V24.0453H9.67855V24.6296ZM0.0577393 25.1933H2.59719V24.6296H0.0592911L0.0577393 25.1933ZM4.85767 25.1933H7.3785V24.6296H4.85767V25.1933ZM9.67855 25.1933H12.0993V24.6296H9.67855V25.1933Z" fill="#CCCCCC"/>
<path fill-rule="evenodd" clip-rule="evenodd" d="M0.0566406 25.7767H2.59726V25.1931H0.0578047L0.0566406 25.7767ZM4.85774 25.7767H7.37856V25.1931H4.85774V25.7767ZM9.67862 25.7767H12.0993V25.1931H9.67862V25.7767Z" fill="#CCCCCC"/>
<path fill-rule="evenodd" clip-rule="evenodd" d="M30.7244 3.60481H31.0546L30.7244 3.02087V3.60481ZM30.7244 4.20893H31.3968L31.0546 3.60481H30.7244V4.20893Z" fill="#CCCCCC"/>
<path fill-rule="evenodd" clip-rule="evenodd" d="M30.7244 4.81322H31.7387L31.3968 4.20911H30.7244V4.81322ZM35.6256 4.81322H37.9862V4.22928H35.6256V4.81322Z" fill="#CCCCCC"/>
<path fill-rule="evenodd" clip-rule="evenodd" d="M30.7244 5.41761H32.0809L31.7387 4.81311H30.7244V5.41761ZM35.6256 5.41761H37.9862V4.81311H35.6256V5.41761Z" fill="#CCCCCC"/>
<path fill-rule="evenodd" clip-rule="evenodd" d="M30.7244 6.00142H32.4111L32.0809 5.41748H30.7244V6.00142ZM35.6256 6.00142H37.9862V5.41748H35.6256V6.00142Z" fill="#CCCCCC"/>
<path fill-rule="evenodd" clip-rule="evenodd" d="M30.7244 6.6057H32.7533L32.4111 6.00159H30.7244V6.6057ZM35.6256 6.6057H37.9862V6.00159H35.6256V6.6057ZM30.7244 7.20981H33.0951L32.7533 6.6057H30.7244V7.20981ZM35.6256 7.20981H37.9862V6.6057H35.6256V7.20981Z" fill="#CCCCCC"/>
<path fill-rule="evenodd" clip-rule="evenodd" d="M30.7245 7.81344H33.4374L33.0951 7.20972H30.7245V7.81344ZM35.6257 7.81344H37.9863V7.20972H35.6257V7.81344ZM30.7245 8.39777H33.7676L33.437 7.81344H30.7241V8.39777H30.7245ZM35.6257 8.39777H37.9863V7.81344H35.6257V8.39777Z" fill="#CCCCCC"/>
<path fill-rule="evenodd" clip-rule="evenodd" d="M30.7244 9.00218H34.1093L33.7675 8.39807H30.7244V9.00218ZM35.6256 9.00218H37.9862V8.39807H35.6256V9.00218ZM30.7244 9.6063H34.4519L34.1093 9.00218H30.7244V9.6063ZM35.6256 9.6063H37.9862V9.00218H35.6256V9.6063Z" fill="#CCCCCC"/>
<path fill-rule="evenodd" clip-rule="evenodd" d="M30.7244 10.2105H34.7938L34.4519 9.60596H30.7244V10.2105ZM35.6256 10.2105H37.9862V9.60596H35.6256V10.2105Z" fill="#CCCCCC"/>
<path fill-rule="evenodd" clip-rule="evenodd" d="M30.7244 10.7939H35.1239L34.7934 10.21H30.7244V10.7939ZM35.6256 10.7939H37.9862V10.21H35.6256V10.7939ZM30.7244 11.398H35.4658L35.1239 10.7939H30.7244V11.398ZM35.6256 11.398H37.9862V10.7939H35.6256V11.398Z" fill="#CCCCCC"/>
<path fill-rule="evenodd" clip-rule="evenodd" d="M30.7244 12.0022H37.9862V11.3981H35.6256V11.6805L35.4658 11.3981H30.7244V12.0022ZM30.7244 12.6063H33.0447V12.0627L33.3946 12.6063H37.9862V12.0022H30.7244V12.6063Z" fill="#CCCCCC"/>
<path fill-rule="evenodd" clip-rule="evenodd" d="M30.7244 13.1907H33.0447V12.6068H30.7244V13.1907ZM33.7698 13.1907H37.9862V12.6068H33.3946L33.7698 13.1907Z" fill="#CCCCCC"/>
<path fill-rule="evenodd" clip-rule="evenodd" d="M30.7244 13.795H33.0447V13.1909H30.7244V13.795ZM34.1586 13.795H37.9862V13.1909H33.7698L34.1586 13.795Z" fill="#CCCCCC"/>
<path fill-rule="evenodd" clip-rule="evenodd" d="M30.7244 14.3988H33.0447V13.7947H30.7244V14.3988ZM34.5474 14.3988H37.9862V13.7947H34.1586L34.5474 14.3988Z" fill="#CCCCCC"/>
<path fill-rule="evenodd" clip-rule="evenodd" d="M30.7244 14.983H33.0447V14.3987H30.7244V14.983ZM34.9226 14.983H37.9862V14.3987H34.5474L34.9226 14.983Z" fill="#CCCCCC"/>
<path fill-rule="evenodd" clip-rule="evenodd" d="M30.7244 15.5871H33.0447V14.983H30.7244V15.5871ZM35.311 15.5871H37.9862V14.983H34.9226L35.311 15.5871Z" fill="#CCCCCC"/>
<path fill-rule="evenodd" clip-rule="evenodd" d="M30.7244 16.1913H33.0447V15.5872H30.7244V16.1913ZM35.6997 16.1913H37.9862V15.5872H35.311L35.6997 16.1913ZM30.7244 16.7954H33.0447V16.1913H30.7244V16.7954ZM35.7257 16.7954H37.9862V16.1913H35.6997L35.7253 16.2316V16.7954H35.7257ZM30.7244 17.3797H33.0447V16.7954H30.7244V17.3797ZM35.7257 17.3797H37.9862V16.7954H35.7257V17.3797Z" fill="#CCCCCC"/>
<path fill-rule="evenodd" clip-rule="evenodd" d="M30.7244 17.9831H33.0447V17.379H30.7244V17.9831ZM35.7257 17.9831H37.9862V17.379H35.7257V17.9831ZM30.7244 18.5873H33.0447V17.9831H30.7244V18.5873ZM35.7257 18.5873H37.9862V17.9831H35.7257V18.5873Z" fill="#CCCCCC"/>
<path fill-rule="evenodd" clip-rule="evenodd" d="M30.7244 19.1921H33.0447V18.5872H30.7244V19.1921ZM35.7257 19.1921H37.9862V18.5872H35.7257V19.1921Z" fill="#CCCCCC"/>
<path fill-rule="evenodd" clip-rule="evenodd" d="M30.7244 19.7757H33.0447V19.1921H30.7244V19.7757ZM35.7257 19.7757H37.9862V19.1921H35.7257V19.7757ZM30.7244 20.3806H33.0447V19.7757H30.7244V20.3806ZM35.7257 20.3806H37.9862V19.7757H35.7257V20.3806Z" fill="#CCCCCC"/>
<path fill-rule="evenodd" clip-rule="evenodd" d="M30.7244 20.9847H33.0447V20.3806H30.7244V20.9847ZM35.7257 20.9847H37.9862V20.3806H35.7257V20.9847Z" fill="#CCCCCC"/>
<path fill-rule="evenodd" clip-rule="evenodd" d="M30.7244 21.5881H33.0447V20.984H30.7244V21.5881ZM35.7257 21.5881H37.9862V20.984H35.7257V21.5881ZM30.7244 22.1724H33.0447V21.5881H30.7244V22.1724ZM35.7257 22.1724H37.9862V21.5881H35.7257V22.1724Z" fill="#CCCCCC"/>
<path fill-rule="evenodd" clip-rule="evenodd" d="M30.7244 22.7768H33.0447V22.1727H30.7244V22.7768ZM35.7257 22.7768H37.9862V22.1727H35.7257V22.7768Z" fill="#CCCCCC"/>
<path fill-rule="evenodd" clip-rule="evenodd" d="M30.7244 23.3804H33.0447V22.7762H30.7244V23.3804ZM35.7257 23.3804H37.9862V22.7762H35.7257V23.3804Z" fill="#CCCCCC"/>
<path fill-rule="evenodd" clip-rule="evenodd" d="M30.7244 23.9847H33.0447V23.3806H30.7244V23.9847ZM35.7257 23.9847H37.9862V23.3806H35.7257V23.9847Z" fill="#CCCCCC"/>
<path fill-rule="evenodd" clip-rule="evenodd" d="M30.7244 24.5689H33.0447V23.9846H30.7244V24.5689ZM35.7257 24.5689H37.9862V23.9846H35.7257V24.5689ZM30.7244 25.1731H33.0447V24.5689H30.7244V25.1731ZM35.7257 25.1731H37.9862V24.5689H35.7257V25.1731Z" fill="#CCCCCC"/>
<path fill-rule="evenodd" clip-rule="evenodd" d="M30.7244 25.7768H33.0447V25.1727H30.7244V25.7768ZM35.7257 25.7768H37.9862V25.1727H35.7257V25.7768Z" fill="#CCCCCC"/>
<path fill-rule="evenodd" clip-rule="evenodd" d="M51.9573 0.846225H53.81V0C53.81 0 53.0642 0.255303 51.9573 0.846225Z" fill="#CCCCCC"/>
<path fill-rule="evenodd" clip-rule="evenodd" d="M50.5248 1.69164H53.81V0.846191H51.9573C51.4679 1.10726 50.9899 1.38934 50.5248 1.69164Z" fill="#CCCCCC"/>
<path fill-rule="evenodd" clip-rule="evenodd" d="M49.351 2.51756H53.8099V1.69189H50.5247C50.1236 1.95275 49.7321 2.22816 49.351 2.51756ZM48.3158 3.36339H53.8099V2.51756H49.351C48.9962 2.7874 48.651 3.06951 48.3158 3.36339ZM47.4157 4.20923H52.9191C53.4654 3.95276 53.8103 3.84684 53.8103 3.84684V3.36339H48.3162C48.0064 3.63489 47.706 3.917 47.4157 4.20923Z" fill="#CCCCCC"/>
<path fill-rule="evenodd" clip-rule="evenodd" d="M46.6281 5.0546H51.4168C51.8965 4.73688 52.3984 4.45407 52.9187 4.20837H47.4154C47.1438 4.48178 46.8812 4.76401 46.6281 5.0546ZM45.9394 5.90044H50.2815C50.6436 5.59737 51.0227 5.31509 51.4168 5.05499H46.6281C46.3894 5.32925 46.1597 5.61121 45.9394 5.90044Z" fill="#CCCCCC"/>
<path fill-rule="evenodd" clip-rule="evenodd" d="M45.3346 6.74647H49.3683C49.658 6.44905 49.9628 6.16673 50.2816 5.90063H45.9395C45.7289 6.17604 45.5272 6.45813 45.3346 6.74647ZM44.8178 7.57213H48.6349C48.8667 7.28578 49.1115 7.01026 49.3686 6.74647H45.335C45.1565 7.01225 44.9846 7.28734 44.8178 7.57213Z" fill="#CCCCCC"/>
<path fill-rule="evenodd" clip-rule="evenodd" d="M44.3564 8.41774H48.0082C48.2047 8.12683 48.4138 7.84462 48.6348 7.5719H44.8177C44.6557 7.8493 44.5019 8.13137 44.3564 8.41774ZM43.9579 9.26396H47.4887C47.6555 8.96753 47.8289 8.68584 48.0086 8.41812H44.3567C44.2171 8.69205 44.0836 8.97374 43.9579 9.26396Z" fill="#CCCCCC"/>
<path fill-rule="evenodd" clip-rule="evenodd" d="M43.6169 10.1095H47.058C47.1908 9.82225 47.3343 9.5401 47.4883 9.26367H43.9575C43.8363 9.54245 43.7227 9.8245 43.6169 10.1095Z" fill="#CCCCCC"/>
<path fill-rule="evenodd" clip-rule="evenodd" d="M43.33 10.9548H46.706C46.815 10.6623 46.9326 10.3798 47.0575 10.109H43.6164C43.5151 10.3845 43.4197 10.6666 43.33 10.9548ZM43.0984 11.7805H46.4266C46.5132 11.4961 46.6063 11.221 46.7064 10.9548H43.3304C43.2458 11.228 43.1684 11.5033 43.0984 11.7805Z" fill="#CCCCCC"/>
<path fill-rule="evenodd" clip-rule="evenodd" d="M42.9052 12.6265H46.2032C46.2707 12.3359 46.3449 12.0538 46.4267 11.7806H43.0985C43.0269 12.0609 42.9625 12.3429 42.9052 12.6265ZM42.7574 13.4723H46.0333C46.0826 13.1821 46.1392 12.9004 46.2032 12.6265H42.9052C42.8498 12.9031 42.8005 13.1852 42.7574 13.4723Z" fill="#CCCCCC"/>
<path fill-rule="evenodd" clip-rule="evenodd" d="M42.6511 14.318H45.9142C45.9468 14.0286 45.9871 13.7465 46.0333 13.4722H42.7574C42.7155 13.7533 42.68 14.0353 42.6511 14.318ZM42.5809 15.1638H45.8416C45.8591 14.8752 45.8832 14.5931 45.9146 14.318H42.6515C42.6218 14.5994 42.5983 14.8814 42.5809 15.1638ZM42.5522 15.9895H45.8114C45.8153 15.7086 45.825 15.4331 45.8416 15.1642H42.5809C42.5657 15.4391 42.5562 15.7142 42.5522 15.9895Z" fill="#CCCCCC"/>
<path fill-rule="evenodd" clip-rule="evenodd" d="M42.5541 16.8352H45.8203C45.8123 16.6339 45.8083 16.4325 45.8082 16.2311C45.8082 16.15 45.8098 16.0701 45.8113 15.9894H42.5521C42.5506 16.1031 42.5475 16.2167 42.5475 16.332C42.5475 16.5019 42.5506 16.6695 42.5541 16.8352ZM50.5492 16.8352H53.8099V16.332H50.5492V16.8352Z" fill="#CCCCCC"/>
<path fill-rule="evenodd" clip-rule="evenodd" d="M42.5976 17.6819H45.8796C45.852 17.4003 45.8324 17.118 45.8207 16.8353H42.5545C42.5627 17.1224 42.577 17.4045 42.5976 17.6819ZM50.5492 17.6819H53.81V16.8353H50.5492V17.6819Z" fill="#CCCCCC"/>
<path fill-rule="evenodd" clip-rule="evenodd" d="M42.6764 18.528H45.9895C45.9441 18.2472 45.9075 17.9651 45.8797 17.6821H42.5976C42.6178 17.9685 42.6438 18.2513 42.6764 18.528ZM50.5492 18.528H53.81V17.6821H50.5492V18.528Z" fill="#CCCCCC"/>
<path fill-rule="evenodd" clip-rule="evenodd" d="M42.8013 19.3733H46.1532C46.0898 19.0931 46.0352 18.8111 45.9895 18.5275H42.6764C42.7113 18.815 42.7536 19.0967 42.8013 19.3733ZM50.5493 19.3733H53.81V18.5275H50.5493V19.3733Z" fill="#CCCCCC"/>
<path fill-rule="evenodd" clip-rule="evenodd" d="M42.9704 20.2189H46.3759C46.2924 19.9395 46.2181 19.6574 46.1532 19.373H42.8013C42.8513 19.6609 42.9076 19.943 42.9704 20.2189ZM50.5492 20.2189H53.81V19.373H50.5492V20.2189Z" fill="#CCCCCC"/>
<path fill-rule="evenodd" clip-rule="evenodd" d="M43.1804 21.0443H46.6534C46.5514 20.7725 46.4589 20.4972 46.376 20.219H42.9705C43.0341 20.5003 43.1036 20.7754 43.1804 21.0443ZM50.5493 21.0443H53.81V20.219H50.5493V21.0443ZM43.4462 21.8909H47.0057C46.8783 21.6129 46.7608 21.3305 46.6534 21.0443H43.1804C43.2623 21.3329 43.3507 21.6158 43.4462 21.8909ZM50.5493 21.8909H53.81V21.0443H50.5493V21.8909Z" fill="#CCCCCC"/>
<path fill-rule="evenodd" clip-rule="evenodd" d="M43.7681 22.7365H47.4335C47.2802 22.46 47.1373 22.1778 47.0052 21.8906H43.4457C43.5469 22.1797 43.6544 22.4614 43.7681 22.7365ZM50.5492 22.7365H53.8099V21.8906H50.5492V22.7365Z" fill="#CCCCCC"/>
<path fill-rule="evenodd" clip-rule="evenodd" d="M44.1512 23.5823H47.9477C47.7656 23.3071 47.5942 23.025 47.434 22.7365H43.7686C43.8889 23.0259 44.0169 23.308 44.1512 23.5823ZM50.5492 23.5823H53.81V22.7365H50.5492V23.5823Z" fill="#CCCCCC"/>
<path fill-rule="evenodd" clip-rule="evenodd" d="M44.5989 24.428H48.5615C48.345 24.1549 48.1402 23.8727 47.9477 23.5822H44.1512C44.2935 23.8732 44.4437 24.1545 44.5989 24.428ZM50.5492 24.428H53.81V23.5822H50.5492V24.428Z" fill="#CCCCCC"/>
<path fill-rule="evenodd" clip-rule="evenodd" d="M45.1052 25.2534H49.2777C49.0266 24.9893 48.7876 24.7139 48.5614 24.4281H44.5988C44.7584 24.7087 44.9273 24.984 45.1052 25.2534ZM50.5492 25.2534H53.8099V24.4281H50.5492V25.2534Z" fill="#CCCCCC"/>
<path fill-rule="evenodd" clip-rule="evenodd" d="M45.7032 26.0993H50.1819C49.8639 25.8353 49.562 25.5526 49.2778 25.2527H45.1053C45.2952 25.5414 45.4946 25.8238 45.7032 26.0993ZM50.5493 26.0993H53.81V25.2527H50.5493V26.0993Z" fill="#CCCCCC"/>
<path fill-rule="evenodd" clip-rule="evenodd" d="M46.3903 26.9454H53.81V26.0996H50.5493V26.3817C50.5493 26.3817 50.4116 26.2886 50.1819 26.0996H45.7032C45.9226 26.3892 46.1518 26.6713 46.3903 26.9454Z" fill="#CCCCCC"/>
<path fill-rule="evenodd" clip-rule="evenodd" d="M47.1806 27.791H53.8099V26.9452H46.3902C46.6486 27.2424 46.9132 27.5233 47.1806 27.791Z" fill="#CCCCCC"/>
<path fill-rule="evenodd" clip-rule="evenodd" d="M48.0924 28.6367H53.81V27.7909H47.1806C47.4745 28.0835 47.7786 28.3657 48.0924 28.6367Z" fill="#CCCCCC"/>
<path fill-rule="evenodd" clip-rule="evenodd" d="M49.1489 29.4827H53.8103V28.6368H48.0928C48.434 28.932 48.7863 29.2141 49.1489 29.4827ZM50.3567 30.3087H53.8099V29.4827H49.1485C49.5406 29.7733 49.9436 30.0489 50.3567 30.3087ZM51.8467 31.1546H53.8103V30.3087H50.3571C50.8926 30.6443 51.397 30.9256 51.8467 31.1546Z" fill="#CCCCCC"/>
<path fill-rule="evenodd" clip-rule="evenodd" d="M53.81 32.0001V31.1543H51.8463C53.015 31.7495 53.81 32.0001 53.81 32.0001Z" fill="#CCCCCC"/>
<path fill-rule="evenodd" clip-rule="evenodd" d="M59.3518 17.1579H61.7322V16.9965H59.3518V17.1579ZM64.5133 17.1579H66.9938V16.9965H64.5133V17.1579ZM59.3518 17.7414H61.7322V17.1579H59.3518V17.7414ZM64.5133 17.7414H66.9938V17.1579H64.5133V17.7414Z" fill="#CCCCCC"/>
<path fill-rule="evenodd" clip-rule="evenodd" d="M59.3518 18.3261H61.7322V17.7418H59.3518V18.3261ZM64.5133 18.3261H66.9938V17.7418H64.5133V18.3261Z" fill="#CCCCCC"/>
<path fill-rule="evenodd" clip-rule="evenodd" d="M59.3518 18.9095H61.7322V18.3259H59.3518V18.9095ZM64.5133 18.9095H66.9938V18.3259H64.5133V18.9095ZM59.3518 19.4938H61.7322V18.9095H59.3518V19.4938ZM64.5133 19.4938H66.9938V18.9095H64.5133V19.4938Z" fill="#CCCCCC"/>
<path fill-rule="evenodd" clip-rule="evenodd" d="M59.3518 20.0783H61.7322V19.494H59.3518V20.0783ZM64.5133 20.0783H66.9938V19.494H64.5133V20.0783ZM59.3518 20.6627H61.7322V20.0783H59.3518V20.6627ZM64.5133 20.6627H66.9938V20.0783H64.5133V20.6627Z" fill="#CCCCCC"/>
<path fill-rule="evenodd" clip-rule="evenodd" d="M59.3518 21.2457H61.7322V20.6621H59.3518V21.2457ZM64.5133 21.2457H66.9938V20.6621H64.5133V21.2457ZM59.3518 21.8498H61.7322V21.2457H59.3518V21.8498ZM64.5133 21.8498H66.9938V21.2457H64.5133V21.8498ZM59.3518 22.4341H61.7322V21.8498H59.3518V22.4341ZM64.5133 22.4341H66.9938V21.8498H64.5133V22.4341Z" fill="#CCCCCC"/>
<path fill-rule="evenodd" clip-rule="evenodd" d="M59.4103 23.0183H61.9928C61.7814 22.7242 61.7321 22.434 61.7321 22.434H59.3517C59.3517 22.434 59.3482 22.6695 59.4103 23.0183ZM64.4073 23.0183H66.9522C66.9809 22.8243 66.991 22.6652 66.9937 22.5628V22.434H64.5133C64.5133 22.434 64.542 22.7242 64.4073 23.0183ZM59.5605 23.6018H62.9842C62.4817 23.5297 62.1764 23.2728 61.9928 23.0183H59.4103C59.4413 23.1902 59.4883 23.3896 59.5605 23.6018ZM63.5607 23.6018H66.8191C66.8851 23.3896 66.9258 23.1902 66.9518 23.0183H64.407C64.2906 23.2728 64.0504 23.5297 63.5607 23.6018Z" fill="#CCCCCC"/>
<path fill-rule="evenodd" clip-rule="evenodd" d="M59.8142 24.1865H66.5836C66.6853 23.9886 66.7617 23.7904 66.8192 23.6022H63.5608C63.3696 23.63 63.1754 23.63 62.9842 23.6022H59.5605C59.6241 23.79 59.7064 23.9886 59.8142 24.1865Z" fill="#CCCCCC"/>
<path fill-rule="evenodd" clip-rule="evenodd" d="M60.2205 24.7705H66.1965C66.3471 24.5909 66.4769 24.3948 66.5837 24.1862H59.8143C59.9277 24.3953 60.064 24.5913 60.2205 24.7705ZM60.9053 25.354H65.531C65.7809 25.194 66.0052 24.9973 66.1965 24.7705H60.2205C60.419 24.9974 60.6498 25.194 60.9053 25.354Z" fill="#CCCCCC"/>
<path fill-rule="evenodd" clip-rule="evenodd" d="M65.531 25.3536H60.9052C61.4601 25.7021 62.2116 25.938 63.2325 25.938C64.2482 25.938 64.9901 25.7024 65.531 25.3536Z" fill="#CCCCCC"/>
<path fill-rule="evenodd" clip-rule="evenodd" d="M60.8932 4.26961H65.4697C64.9156 3.92041 64.1609 3.68567 63.1327 3.68567C62.155 3.68528 61.4306 3.92041 60.8932 4.26961ZM60.2286 4.85355H66.151C65.9541 4.62622 65.7244 4.42943 65.4697 4.26961H60.8932C60.6444 4.43079 60.4205 4.62752 60.2286 4.85355Z" fill="#CCCCCC"/>
<path fill-rule="evenodd" clip-rule="evenodd" d="M59.8309 5.43733H66.5495C66.4385 5.22863 66.3049 5.0328 66.151 4.85339H60.2286C60.0756 5.03333 59.9423 5.22908 59.8309 5.43733ZM59.5775 6.02127H66.7963C66.7313 5.81971 66.6486 5.6243 66.5491 5.43733H59.8305C59.7304 5.62475 59.6458 5.82005 59.5775 6.02127ZM59.4239 6.60559H61.949C62.1348 6.33361 62.477 6.0818 63.1122 6.0818C63.7578 6.0818 64.1059 6.33322 64.2929 6.60559H66.9398C66.9068 6.40763 66.859 6.21243 66.7966 6.02166H59.5779C59.5131 6.21249 59.4616 6.40761 59.4239 6.60559Z" fill="#CCCCCC"/>
<path fill-rule="evenodd" clip-rule="evenodd" d="M59.3534 7.18931H61.7376C61.7605 6.98057 61.833 6.78034 61.9491 6.60537H59.424C59.3731 6.87115 59.358 7.08105 59.3534 7.18931ZM64.5075 7.18931H66.9938V7.14314C66.9881 6.96273 66.9701 6.78293 66.9399 6.60498H64.293C64.4482 6.82963 64.4936 7.06825 64.5075 7.18931ZM59.3518 7.79342H61.7322V7.26962C61.7322 7.26962 61.7322 7.23936 61.7376 7.18931H59.3534C59.351 7.24091 59.3518 7.26962 59.3518 7.26962V7.79342ZM64.5134 7.79342H66.9938V7.18931H64.5075C64.5137 7.23936 64.5137 7.26962 64.5137 7.26962V7.79342H64.5134Z" fill="#CCCCCC"/>
<path fill-rule="evenodd" clip-rule="evenodd" d="M59.3518 8.37778H61.7322V7.79346H59.3518V8.37778ZM64.5133 8.37778H66.9938V7.79346H64.5133V8.37778ZM59.3518 8.96172H61.7322V8.37778H59.3518V8.96172ZM64.5133 8.96172H66.9938V8.37778H64.5133V8.96172Z" fill="#CCCCCC"/>
<path fill-rule="evenodd" clip-rule="evenodd" d="M59.3518 9.54548H61.7322V8.96155H59.3518V9.54548ZM64.5133 9.54548H66.9938V8.96155H64.5133V9.54548ZM59.3518 10.1298H61.7322V9.54588H59.3518V10.1298ZM64.5133 10.1298H66.9938V9.54588H64.5133V10.1298Z" fill="#CCCCCC"/>
<path fill-rule="evenodd" clip-rule="evenodd" d="M59.3518 10.7139H61.7322V10.13H59.3518V10.7139ZM64.5133 10.7139H66.9938V10.13H64.5133V10.7139ZM59.3518 11.2979H61.7322V10.7139H59.3518V11.2979ZM64.5133 11.2979H66.9938V10.7139H64.5133V11.2979ZM59.3518 11.8818H61.7322V11.2979H59.3518V11.8818ZM64.5133 11.8818H66.9938V11.2979H64.5133V11.8818Z" fill="#CCCCCC"/>
<path fill-rule="evenodd" clip-rule="evenodd" d="M59.3518 12.4655H61.7322V11.8816H59.3518V12.4655ZM64.5133 12.4655H66.9938V11.8816H64.5133V12.4655Z" fill="#CCCCCC"/>
<path fill-rule="evenodd" clip-rule="evenodd" d="M59.3518 13.0497H61.7322V12.4653H59.3518V13.0497ZM64.5133 13.0497H66.9938V12.4653H64.5133V13.0497Z" fill="#CCCCCC"/>
<path fill-rule="evenodd" clip-rule="evenodd" d="M59.3518 13.6336H61.7322V13.0497H59.3518V13.6336ZM64.5133 13.6336H66.9938V13.0497H64.5133V13.6336ZM59.3518 14.2179H61.7322V13.634H59.3518V14.2179ZM64.5133 14.2179H66.9938V13.634H64.5133V14.2179ZM59.3518 14.8221H61.7322V14.2179H59.3518V14.8221ZM64.5133 14.8221H66.9938V14.2179H64.5133V14.8221Z" fill="#CCCCCC"/>
<path fill-rule="evenodd" clip-rule="evenodd" d="M59.3518 15.4057H61.7322V14.8218H59.3518V15.4057ZM64.5133 15.4057H66.9938V14.8218H64.5133V15.4057ZM59.3518 15.9897H61.7322V15.4057H59.3518V15.9897ZM64.5133 15.9897H66.9938V15.4057H64.5133V15.9897Z" fill="#CCCCCC"/>
<path fill-rule="evenodd" clip-rule="evenodd" d="M59.3518 16.5737H61.7322V15.9894H59.3518V16.5737ZM64.5133 16.5737H66.9938V15.9894H64.5133V16.5737ZM66.9938 16.9966V16.5737H64.5133V16.9966H66.9938ZM61.7322 16.5737H59.3518V16.9966H61.7322V16.5737Z" fill="#CCCCCC"/>
<path fill-rule="evenodd" clip-rule="evenodd" d="M19.4387 4.43049H24.0508C23.51 4.08246 22.7662 3.84656 21.7423 3.84656C20.723 3.84656 19.9804 4.08246 19.4387 4.43049ZM18.7721 5.01443H24.7135C24.5236 4.7871 24.3 4.59018 24.0505 4.43049H19.4387C19.1884 4.59047 18.9637 4.78734 18.7721 5.01443Z" fill="#CCCCCC"/>
<path fill-rule="evenodd" clip-rule="evenodd" d="M18.3958 5.57877H25.0856C24.9828 5.37776 24.8582 5.1887 24.7139 5.01501H18.7721C18.6265 5.18866 18.5003 5.3777 18.3958 5.57877Z" fill="#CCCCCC"/>
<path fill-rule="evenodd" clip-rule="evenodd" d="M18.1556 6.16206H25.3204C25.2599 5.96074 25.1813 5.76529 25.0856 5.57812H18.3958C18.2986 5.76531 18.2183 5.96072 18.1556 6.16206ZM18.0213 6.74639H20.6539C20.8351 6.50156 21.1688 6.26294 21.7822 6.26294C22.415 6.26294 22.7499 6.50156 22.926 6.74639H25.4488C25.4213 6.54871 25.3785 6.35348 25.3208 6.16245H18.1556C18.0885 6.37702 18.0469 6.57683 18.0213 6.74639Z" fill="#CCCCCC"/>
<path fill-rule="evenodd" clip-rule="evenodd" d="M17.981 7.31035H20.4417V7.26999C20.4417 7.26999 20.463 7.0046 20.6539 6.74658H18.0214C17.9736 7.06125 17.981 7.26999 17.981 7.26999V7.31035ZM23.1224 7.31035H25.483V7.14428C25.4789 7.01117 25.4674 6.87839 25.4484 6.74658H22.9257C23.1119 7.0046 23.1224 7.26999 23.1224 7.26999V7.31035ZM17.981 7.89428H20.4417V7.31035H17.981V7.89428ZM23.1224 7.89428H25.483V7.31035H23.1224V7.89428Z" fill="#CCCCCC"/>
<path fill-rule="evenodd" clip-rule="evenodd" d="M17.981 8.47896H20.4417V7.89502H17.981V8.47896ZM23.1224 8.47896H25.483V7.89502H23.1224V8.47896ZM17.981 9.04272H20.4417V8.47896H17.981V9.04272ZM23.1224 9.04272H25.483V8.47896H23.1224V9.04272Z" fill="#CCCCCC"/>
<path fill-rule="evenodd" clip-rule="evenodd" d="M17.981 9.62605H20.4417V9.04211H17.981V9.62605ZM23.1224 9.62605H25.483V9.04211H23.1224V9.62605ZM17.981 10.1898H20.4417V9.62605H17.981V10.1898ZM23.1224 10.1898H25.483V9.62605H23.1224V10.1898Z" fill="#CCCCCC"/>
<path fill-rule="evenodd" clip-rule="evenodd" d="M17.981 10.7743H20.4417V10.1899H17.981V10.7743ZM23.1224 10.7743H25.483V10.1899H23.1224V10.7743ZM17.981 11.3582H20.4417V10.7743H17.981V11.3582ZM23.1224 11.3582H25.483V10.7743H23.1224V11.3582Z" fill="#CCCCCC"/>
<path fill-rule="evenodd" clip-rule="evenodd" d="M17.981 11.9219H20.4417V11.3582H17.981V11.9219ZM23.1224 11.9219H25.483V11.3582H23.1224V11.9219Z" fill="#CCCCCC"/>
<path fill-rule="evenodd" clip-rule="evenodd" d="M17.981 12.5062H20.4417V11.9219H17.981V12.5062ZM23.1224 12.5062H25.483V11.9219H23.1224V12.5062Z" fill="#CCCCCC"/>
<path fill-rule="evenodd" clip-rule="evenodd" d="M17.981 13.0898H20.4417V12.5059H17.981V13.0898ZM23.1224 13.0898H25.483V12.5059H23.1224V13.0898Z" fill="#CCCCCC"/>
<path fill-rule="evenodd" clip-rule="evenodd" d="M17.981 13.6537H20.4417V13.09H17.981V13.6537ZM23.1224 13.6537H25.483V13.09H23.1224V13.6537ZM17.981 14.2377H20.4417V13.6537H17.981V14.2377ZM23.1224 14.2377H25.483V13.6537H23.1224V14.2377ZM17.981 14.822H20.4417V14.2381H17.981V14.822ZM23.1224 14.822H25.483V14.2381H23.1224V14.822Z" fill="#CCCCCC"/>
<path fill-rule="evenodd" clip-rule="evenodd" d="M17.981 15.3855H20.4417V14.8218H17.981V15.3855ZM23.1224 15.3855H25.483V14.8218H23.1224V15.3855ZM17.981 15.9695H20.4417V15.3855H17.981V15.9695ZM23.1224 15.9695H25.483V15.3855H23.1224V15.9695Z" fill="#CCCCCC"/>
<path fill-rule="evenodd" clip-rule="evenodd" d="M17.981 16.5535H20.4417V15.9696H17.981V16.5535ZM23.1224 16.5535H25.483V15.9696H23.1224V16.5535Z" fill="#CCCCCC"/>
<path fill-rule="evenodd" clip-rule="evenodd" d="M17.981 17.1171H20.4417V16.5533H17.981V17.1171ZM23.1224 17.1171H25.483V16.5533H23.1224V17.1171ZM17.981 17.7014H20.4417V17.1171H17.981V17.7014ZM23.1224 17.7014H25.483V17.1171H23.1224V17.7014Z" fill="#CCCCCC"/>
<path fill-rule="evenodd" clip-rule="evenodd" d="M17.981 18.2653H20.4417V17.7015H17.981V18.2653ZM23.1224 18.2653H25.483V17.7015H23.1224V18.2653ZM17.981 18.8496H20.4417V18.2653H17.981V18.8496ZM23.1224 18.8496H25.483V18.2653H23.1224V18.8496ZM14.8871 19.4332H25.483V18.8496H23.1224V18.9905H20.4417V18.8496H17.981V18.9905H14.6L14.8871 19.4332Z" fill="#CCCCCC"/>
<path fill-rule="evenodd" clip-rule="evenodd" d="M15.2531 19.9979H25.483V19.4333H14.8872L15.2531 19.9979ZM15.6314 20.5814H25.483V19.9979H15.2531L15.6314 20.5814Z" fill="#CCCCCC"/>
<path fill-rule="evenodd" clip-rule="evenodd" d="M16.0099 21.1655H25.4829V20.5815H15.6313L16.0099 21.1655ZM18.0811 21.7296H20.4017V21.4072H23.1825V21.7296H25.4829V21.1655H16.0099L16.1407 21.3672H18.0811V21.7296Z" fill="#CCCCCC"/>
<path fill-rule="evenodd" clip-rule="evenodd" d="M18.0811 22.3137H20.4018V21.7294H18.0811V22.3137ZM23.1826 22.3137H25.483V21.7294H23.1826V22.3137Z" fill="#CCCCCC"/>
<path fill-rule="evenodd" clip-rule="evenodd" d="M18.0811 22.8969H20.4018V22.3134H18.0811V22.8969ZM23.1826 22.8969H25.483V22.3134H23.1826V22.8969ZM18.0811 23.4607H20.4018V22.8969H18.0811V23.4607ZM23.1826 23.4607H25.483V22.8969H23.1826V23.4607Z" fill="#CCCCCC"/>
<path fill-rule="evenodd" clip-rule="evenodd" d="M18.0811 24.0453H20.4018V23.4609H18.0811V24.0453ZM23.1826 24.0453H25.483V23.4609H23.1826V24.0453ZM18.0811 24.6296H20.4018V24.0453H18.0811V24.6296ZM23.1826 24.6296H25.483V24.0453H23.1826V24.6296ZM18.0811 25.1933H20.4018V24.6296H18.0811V25.1933ZM23.1826 25.1933H25.483V24.6296H23.1826V25.1933Z" fill="#CCCCCC"/>
<path fill-rule="evenodd" clip-rule="evenodd" d="M18.0811 25.7767H20.4018V25.1931H18.0811V25.7767ZM23.1826 25.7767H25.483V25.1931H23.1826V25.7767Z" fill="#CCCCCC"/>
</svg>
