<svg width="80" height="80" viewBox="0 0 80 80" fill="none" xmlns="http://www.w3.org/2000/svg">
<path d="M46.1162 15.9961C51.87 21.7499 55.6025 29.2149 56.7537 37.2699L60 59.9999L37.27 56.7524C29.215 55.6011 21.75 51.8686 15.9962 46.1149C10.34 40.4586 6.63497 33.1461 5.41872 25.2411L2.54122 6.53488C2.37122 5.43238 2.73747 4.31488 3.52622 3.52613C4.31497 2.73738 5.43247 2.37113 6.53497 2.54113L25.2425 5.41863C33.1475 6.63488 40.46 10.3399 46.1162 15.9961Z" fill="#DB9B7C"/>
<path d="M5.79497 27.3061C5.64997 26.6224 5.52497 25.9349 5.41872 25.2411L2.54122 6.53488C2.37122 5.43238 2.73747 4.31488 3.52622 3.52613C4.31497 2.73738 5.43247 2.37113 6.53497 2.54113L25.2425 5.41863C25.935 5.52488 26.6237 5.65113 27.3075 5.79613C28.2337 7.83988 28.75 10.1099 28.75 12.4999C28.75 21.4749 21.475 28.7499 12.5 28.7499C10.1087 28.7499 7.83872 28.2336 5.79497 27.3061Z" fill="#EFBE9A"/>
<path d="M40.27 57.1812L37.27 56.7525C29.215 55.6013 21.75 51.8687 15.9963 46.115C14.215 44.335 12.6275 42.3888 11.25 40.3125V44.6362C11.25 47.9562 13.0187 51.025 15.8925 52.6888L28.0737 59.7412C32.0562 62.045 37.125 61.0938 40 57.5L40.27 57.1812Z" fill="#E47C6E"/>
<path d="M58.75 50L60.675 46.15C63.4175 40.6637 63.6063 34.2488 61.19 28.61L59.1663 23.8875C55.9213 16.3175 48.53 11.375 40.3125 11.2525L40.3138 11.25C42.39 12.6275 44.335 14.215 46.1163 15.9963C51.87 21.75 55.6025 29.215 56.7538 37.27L58.575 50.025L58.75 50Z" fill="#E47C6E"/>
<path d="M77.5 61.2498C73.4875 58.8423 68.7038 58.0661 64.135 59.0811L60 59.9998L59.0813 64.1348C58.0663 68.7036 58.8425 73.4873 61.25 77.4998L66.25 66.2498L77.5 61.2498Z" fill="#E47C6E"/>
<path d="M15 12.4985C13.6212 12.4985 12.5 11.3773 12.5 9.99853C12.5 8.61978 13.6212 7.49854 15 7.49854C16.3788 7.49854 17.5 8.61978 17.5 9.99853C17.4988 11.3773 16.3775 12.4985 15 12.4985Z" fill="#606060"/>
<path d="M4.63 12.8623L3.31375 11.5586L3.93625 15.6048C7.24875 18.4411 11.4125 19.9998 15.8213 19.9998H18.7488V17.4998H15.8213C11.5938 17.4998 7.62125 15.8536 4.63 12.8623Z" fill="#DB9B7C"/>
<path d="M35 23.7487H30V21.2488H34.4813L36.25 19.4812V15H38.75V20C38.75 20.3325 38.6188 20.65 38.385 20.885L35.885 23.385C35.65 23.6175 35.3313 23.7487 35 23.7487Z" fill="#EFBE9A"/>
<path d="M20 38.7487H15V36.2487H19.4812L21.25 34.4812V30H23.75V35C23.75 35.3325 23.6188 35.65 23.385 35.885L20.885 38.385C20.65 38.6175 20.3313 38.7487 20 38.7487Z" fill="#EFBE9A"/>
<path d="M31.25 34.9987H26.25V32.4987H30.7313L32.5 30.7312V26.25H35V31.25C35 31.5825 34.8688 31.9 34.635 32.135L32.135 34.635C31.9 34.8675 31.5813 34.9987 31.25 34.9987Z" fill="#EFBE9A"/>
<path d="M42.5 31.2487H37.5V28.7487H41.9813L43.75 26.9812V22.5H46.25V27.5C46.25 27.8325 46.1188 28.15 45.885 28.385L43.385 30.885C43.15 31.1175 42.8313 31.2487 42.5 31.2487Z" fill="#EFBE9A"/>
<path d="M27.5 46.2487H22.5V43.7487H26.9813L28.75 41.9812V37.5H31.25V42.5C31.25 42.8325 31.1188 43.15 30.885 43.385L28.385 45.885C28.15 46.1175 27.8313 46.2487 27.5 46.2487Z" fill="#EFBE9A"/>
<path d="M38.75 42.4987H33.75V39.9987H38.2313L40 38.2312V33.75H42.5V38.75C42.5 39.0825 42.3688 39.4 42.135 39.635L39.635 42.135C39.4 42.3675 39.0813 42.4987 38.75 42.4987Z" fill="#EFBE9A"/>
<path d="M50 38.7487H46.25V36.2487H49.4825L51.25 34.4812V31.25H53.75L53.7513 35C53.7513 35.3312 53.62 35.65 53.385 35.885L50.885 38.385C50.65 38.6175 50.3313 38.7487 50 38.7487Z" fill="#EFBE9A"/>
<path d="M35 53.7487H31.25V51.2487H34.4825L36.25 49.4812V46.25H38.75L38.7513 50C38.7513 50.3312 38.62 50.65 38.385 50.885L35.885 53.385C35.65 53.6175 35.3313 53.7487 35 53.7487Z" fill="#EFBE9A"/>
<path d="M46.25 49.9987H41.25V47.4987H45.7313L47.5 45.7312V41.25H50V46.25C50 46.5825 49.8688 46.9 49.635 47.135L47.135 49.635C46.9 49.8675 46.5813 49.9987 46.25 49.9987Z" fill="#EFBE9A"/>
<path d="M59.1663 23.8888C58.7775 22.9813 58.3263 22.1151 57.8238 21.2863L47.3838 17.3713C48.4775 18.5801 49.4938 19.8476 50.4163 21.1788L59.4588 24.5701L59.1663 23.8888Z" fill="#C66B60"/>
<path d="M54.33 28.3637L62.1887 31.6287C61.925 30.6062 61.6125 29.5937 61.1912 28.61L61.1375 28.4837L52.7325 24.9912C53.3137 26.0912 53.8587 27.2112 54.33 28.3637Z" fill="#C66B60"/>
<path d="M56.3626 35.15L62.8338 37.8387C62.8775 36.9325 62.8763 36.0237 62.8026 35.1187L55.6238 32.1362C55.9113 33.1275 56.1563 34.1325 56.3626 35.15Z" fill="#C66B60"/>
<path d="M30.1488 60.6174L28.935 54.5474C27.9875 54.1774 27.055 53.7712 26.1413 53.3262L27.3388 59.3124L28.075 59.7387C28.7387 60.1249 29.4363 60.4112 30.1488 60.6174Z" fill="#C66B60"/>
<path d="M15.5725 45.6699L18.395 54.1362L21.66 56.0262L19.33 49.0362C18.1725 48.1237 17.0475 47.1662 15.9975 46.1149C15.8513 45.9699 15.715 45.8174 15.5725 45.6699Z" fill="#C66B60"/>
<path d="M78.1425 60.1774C73.8375 57.5949 68.7675 56.7724 63.8637 57.8599L61.0462 58.4862L59.9037 50.4861L61.7925 46.7074C64.7062 40.8812 64.905 34.1049 62.34 28.1161L60.3162 23.3937C56.9187 15.4724 49.2662 10.2937 40.6937 10.0249C36.11 7.03615 30.95 5.03115 25.4325 4.1824L6.72373 1.30365C5.23748 1.0774 3.70873 1.5749 2.64123 2.64115C1.57498 3.70865 1.07498 5.2349 1.30373 6.72365L4.18248 25.4311C5.02873 30.9349 7.02498 36.0799 9.99998 40.6549V44.6362C9.99998 48.3886 12.0175 51.8886 15.265 53.7699L27.4462 60.8224C29.1212 61.7924 30.9512 62.2611 32.7575 62.2611C35.7625 62.2611 38.6962 60.9549 40.7662 58.5161L58.4862 61.0474L57.86 63.8649C56.7712 68.7674 57.5937 73.8386 60.1775 78.1436C60.4037 78.5199 60.8112 78.7499 61.2487 78.7499C61.275 78.7499 61.3 78.7486 61.325 78.7474C61.7912 78.7187 62.2025 78.4336 62.3912 78.0074L67.1962 67.1974L78.0075 62.3924C78.4337 62.2037 78.7187 61.7924 78.7475 61.3261C78.7762 60.8599 78.5412 60.4161 78.1425 60.1774ZM37.4462 55.5149C29.71 54.4099 22.4062 50.7574 16.88 45.2312C12.4037 40.7549 9.25623 35.2962 7.58998 29.2799C9.17498 29.7436 10.815 29.9986 12.5 29.9986C22.1487 29.9986 30 22.1487 30 12.4987C30 10.8149 29.745 9.1749 29.28 7.5899C35.2962 9.25615 40.755 12.4037 45.2312 16.8799C50.7575 22.4062 54.41 29.7099 55.515 37.4461L58.5262 58.5261L37.4462 55.5149ZM27.01 57.6786L21.0612 54.2349L20.0312 51.1449C22.0425 52.5749 24.195 53.7899 26.4375 54.8174L27.01 57.6786ZM58.0175 24.3799L59.4825 27.7974L54.4975 25.7261C53.8662 24.4186 53.1625 23.1486 52.39 21.9186L57.8162 23.9536C57.8812 24.0961 57.955 24.2337 58.0175 24.3799ZM55.8912 29.0124L60.745 31.0287C61.105 32.1887 61.3337 33.3736 61.4725 34.5649L57.075 32.7374C56.7412 31.4762 56.3487 30.2336 55.8912 29.0124ZM59.5562 45.5899L59.2812 46.1386L57.9887 37.0924C57.9225 36.6311 57.8175 36.1774 57.735 35.7199L61.6187 37.3336C61.545 40.1686 60.8587 42.9862 59.5562 45.5899ZM55.8262 20.5374L49.7912 18.2737C48.9125 17.1762 47.9962 16.1087 47 15.1124C46.3037 14.4162 45.5812 13.7537 44.8425 13.1174C49.25 14.2387 53.14 16.8549 55.8262 20.5374ZM4.40873 4.40865C4.83373 3.9849 5.41248 3.7499 6.00498 3.7499C6.11748 3.7499 6.23123 3.75865 6.34373 3.77615L25.0512 6.6549C25.5075 6.7249 25.9525 6.83115 26.405 6.9174C27.1187 8.6899 27.5 10.5599 27.5 12.4987C27.5 20.7699 20.7712 27.4986 12.5 27.4986C10.5612 27.4986 8.68998 27.1174 6.91748 26.4049C6.83123 25.9537 6.72498 25.5086 6.65498 25.0512L5.37248 16.7162C8.41873 18.8424 12.0287 19.9987 15.8212 19.9987H18.7487V17.4987H15.8212C11.6712 17.4987 7.77123 15.9049 4.80248 13.0187L3.77498 6.34365C3.66748 5.6374 3.90373 4.9149 4.40873 4.40865ZM12.5 44.6349V44.0787C13.3237 45.0849 14.1812 46.0674 15.1125 46.9986C15.5312 47.4174 15.98 47.8012 16.4162 48.1999L17.7975 52.3449L16.5187 51.6036C14.0387 50.1699 12.5 47.4999 12.5 44.6349ZM29.8637 59.1999L29.2162 55.9649C31.7625 56.9024 34.3975 57.6049 37.0925 57.9899L37.6162 58.0649C35.4112 59.7674 32.4962 60.2174 29.8637 59.1999ZM65.7412 65.1061C65.4575 65.2324 65.2325 65.4574 65.1062 65.7411L61.1762 74.5836C59.8512 71.3786 59.5362 67.8436 60.3 64.4049L61.0462 61.0462L64.405 60.2999C67.8462 59.5374 71.3775 59.8524 74.5837 61.1762L65.7412 65.1061Z" fill="#1A1A1A"/>
<path d="M15 12.4985C16.3788 12.4985 17.5 11.3773 17.5 9.99853C17.5 8.61978 16.3788 7.49854 15 7.49854C13.6212 7.49854 12.5 8.61978 12.5 9.99853C12.5 11.3773 13.62 12.4985 15 12.4985Z" fill="#1A1A1A"/>
<path d="M35.8838 23.3835L38.3838 20.8835C38.6188 20.6485 38.7488 20.331 38.7488 19.9985V14.9985H36.2488V19.4798L34.4813 21.2473H30V23.7473H35C35.3313 23.7485 35.6488 23.6173 35.8838 23.3835Z" fill="#1A1A1A"/>
<path d="M23.7488 34.9985V29.9985H21.2488V34.4798L19.4812 36.2473H15V38.7473H20C20.3325 38.7473 20.65 38.616 20.885 38.3823L23.385 35.8823C23.6175 35.6485 23.7488 35.331 23.7488 34.9985Z" fill="#1A1A1A"/>
<path d="M34.6338 32.1335C34.8688 31.8985 34.9988 31.581 34.9988 31.2485V26.2485H32.4988V30.7298L30.7313 32.4973H26.25V34.9973H31.25C31.5825 34.9973 31.9 34.866 32.135 34.6323L34.6338 32.1335Z" fill="#1A1A1A"/>
<path d="M37.5 31.2485H42.5C42.8325 31.2485 43.15 31.1173 43.385 30.8835L45.885 28.3835C46.12 28.1485 46.25 27.831 46.25 27.4985V22.4985H43.75V26.9798L41.9825 28.7473H37.5V31.2485Z" fill="#1A1A1A"/>
<path d="M28.7488 41.981L26.9813 43.7485H22.5V46.2485H27.5C27.8325 46.2485 28.15 46.1173 28.385 45.8835L30.885 43.3835C31.12 43.1485 31.25 42.831 31.25 42.4985V37.4985H28.75V41.981H28.7488Z" fill="#1A1A1A"/>
<path d="M42.4988 38.7485V33.7485H39.9988V38.2298L38.2313 39.9973H33.75V42.4973H38.75C39.0825 42.4973 39.4 42.366 39.635 42.1323L42.135 39.6323C42.3675 39.3985 42.4988 39.081 42.4988 38.7485Z" fill="#1A1A1A"/>
<path d="M51.2488 34.481L49.4813 36.2485H46.25V38.7485H50C50.3325 38.7485 50.65 38.6173 50.885 38.3835L53.385 35.8835C53.62 35.6485 53.75 35.331 53.75 34.9985V31.2485H51.25V34.481H51.2488Z" fill="#1A1A1A"/>
<path d="M36.2488 49.481L34.4813 51.2485H31.25V53.7485H35C35.3325 53.7485 35.65 53.6173 35.885 53.3835L38.385 50.8835C38.62 50.6485 38.75 50.331 38.75 49.9985V46.2485H36.25V49.481H36.2488Z" fill="#1A1A1A"/>
<path d="M47.4988 45.731L45.7313 47.4985H41.25V49.9985H46.25C46.5825 49.9985 46.9 49.8673 47.135 49.6335L49.635 47.1335C49.87 46.8985 50 46.581 50 46.2485V41.2485H47.5V45.731H47.4988Z" fill="#1A1A1A"/>
</svg>
