<svg width="80" height="80" viewBox="0 0 80 80" fill="none" xmlns="http://www.w3.org/2000/svg">
<g clip-path="url(#clip0_240_3115)">
<path d="M74.3939 12.887C73.9911 11.6235 73.2727 10.6342 72.3785 9.92493C71.8255 9.48669 71.5124 8.81287 71.5124 8.1073V2.34375C71.5124 1.69678 70.9881 1.17188 70.3406 1.17188H67.9968C67.3498 1.17188 66.8249 1.69678 66.8249 2.34375V7.23206C66.8249 8.09753 66.3513 8.89832 65.5841 9.29871C64.4793 9.87549 63.5241 10.8081 62.9028 12.1094C60.2832 17.5958 55.6341 28.9551 46.0852 38.4857C36.5545 48.0347 25.1953 52.6837 19.7088 55.3033C14.6832 57.7026 15.1269 65.0867 20.4864 66.7944C23.6169 67.7917 27.0941 68.2697 30.7342 68.2037C41.3556 68.0121 52.5268 62.0551 61.0907 53.4912C69.6551 44.9274 75.6115 33.7561 75.8038 23.1348C75.8691 19.4946 75.3912 16.0175 74.3939 12.887Z" fill="#FFCF5D"/>
<path d="M69.4653 13.5974C69.6771 13.7653 69.8285 13.9984 69.9274 14.3103C70.7733 16.9659 71.1737 19.906 71.1169 23.0505C70.9576 31.842 65.9705 41.9824 57.7765 50.177C49.5819 58.3716 39.4409 63.3588 30.6494 63.5175C28.1653 63.5626 26.1688 65.5322 26.0535 67.9791C27.572 68.1573 29.1376 68.233 30.7343 68.2043C41.3556 68.0121 52.5269 62.0557 61.0907 53.4918C69.6551 44.9274 75.6116 33.7561 75.8038 23.1348C75.8691 19.4946 75.3912 16.0175 74.3939 12.887C73.9911 11.6235 73.2727 10.6342 72.3785 9.92493C71.8256 9.48669 71.5124 8.81287 71.5124 8.1073V2.34375C71.5124 1.69678 70.9882 1.17188 70.3406 1.17188H67.9968C67.3498 1.17188 66.8249 1.69678 66.8249 2.34375V8.1073C66.8249 10.2655 67.7875 12.2662 69.4653 13.5974Z" fill="#FFB545"/>
<path d="M14.9384 35.511L10.9967 33.0153C10.0055 32.3873 8.75977 33.3223 9.10279 34.4368L10.2594 38.1935C11.1212 40.9938 12.9059 43.4279 15.3278 45.1082L19.2004 47.6564C19.2011 43.0934 19.0241 38.0983 14.9384 35.511Z" fill="#28D05B"/>
<path d="M25.683 45.9551C23.4106 45.872 21.2091 46.4635 19.2004 47.5841C17.193 46.4641 14.9908 45.8714 12.7185 45.9551C7.96691 46.1577 4.54956 48.7059 2.72705 51.9865C0.897822 55.3215 0.664057 59.3895 2.1228 63.878C4.35363 70.7225 10.274 76.8541 15.8984 77.1751C16.4508 77.213 16.991 77.2014 17.5165 77.1459C18.6285 77.0287 19.7729 77.0287 20.885 77.1459C21.4105 77.2014 21.9507 77.213 22.503 77.1751C28.1268 76.8541 34.0478 70.7225 36.2787 63.878C37.7374 59.3895 37.503 55.3215 35.6744 51.9865C33.8519 48.7059 30.4346 46.1577 25.683 45.9551Z" fill="#FF5368"/>
<path d="M35.6744 51.9866C34.7827 50.3807 33.5077 48.9513 31.8817 47.8862C32.052 48.1432 32.2125 48.4056 32.3615 48.6736C34.1907 52.0085 34.4251 56.0759 32.9657 60.5651C31.4679 65.161 28.3063 69.4353 24.6881 71.845C22.6898 73.1755 20.332 73.8622 17.9309 73.8622H8.70422C10.9387 75.7891 13.4467 77.0354 15.8984 77.1752C16.4508 77.213 16.991 77.2014 17.5171 77.1459C18.6371 77.0269 19.7668 77.0281 20.8868 77.1459C21.4117 77.2014 21.9513 77.2124 22.5037 77.1752C28.1274 76.8541 34.0485 70.7225 36.2793 63.8781C37.738 59.3895 37.5037 55.3215 35.6744 51.9866Z" fill="#D9435B"/>
<path d="M67.8674 48.2031C67.3749 46.1426 65.5219 44.6094 63.3099 44.6094C61.0974 44.6094 59.245 46.1426 58.7518 48.2031C52.3462 50.1538 47.6849 56.1084 47.6849 63.1519C47.6849 71.7816 54.6802 78.7769 63.3099 78.7769C71.9391 78.7769 78.9349 71.7816 78.9349 63.1519C78.9349 56.1084 74.2737 50.1538 67.8674 48.2031Z" fill="#FF983B"/>
<path d="M72.5769 50.5718C74.4904 53.1646 75.6213 56.3695 75.6213 59.8394C75.6213 68.4685 68.6261 75.4637 59.9963 75.4637C56.5271 75.4637 53.3221 74.3328 50.7294 72.4193C53.5748 76.2755 58.15 78.7767 63.3099 78.7767C71.9391 78.7767 78.9349 71.7815 78.9349 63.1517C78.9349 57.9924 76.4331 53.4172 72.5769 50.5718Z" fill="#FF7E40"/>
<path d="M72.2357 48.7672L71.0791 45.0105C70.2173 42.2102 68.4332 39.7755 66.0107 38.0958L64.4818 37.0893C63.476 36.4277 62.1381 37.1491 62.1381 38.3527V40.0178C62.1381 43.1513 63.6365 45.9431 66.4001 47.693L70.3418 50.1893C71.333 50.8161 72.5793 49.8817 72.2357 48.7672Z" fill="#28D05B"/>
<path d="M52.5037 19.7382C52.24 19.1529 51.5338 18.91 50.9412 19.1553L50.2844 19.4275L50.7873 18.9246C51.2408 18.4705 51.2872 17.7253 50.8472 17.2583C50.3918 16.7756 49.6307 16.7664 49.1644 17.2327L48.6273 17.7698L48.9178 17.0679C49.1656 16.4698 48.8818 15.7843 48.2837 15.5365C47.6855 15.2881 47.0001 15.5732 46.7523 16.1713L46.1163 17.7076C45.965 18.0726 46.0126 18.4595 46.1975 18.7635C46.5106 19.2798 46.4606 19.936 46.0339 20.3632C45.5804 20.8167 45.5347 21.5619 45.9747 22.0289C46.4307 22.5123 47.1912 22.5202 47.6569 22.0545L47.6794 22.0319C48.1122 21.5992 48.775 21.5522 49.3017 21.8634C49.6051 22.0429 49.9878 22.0868 50.3473 21.9379L51.8835 21.3019C52.4927 21.0498 52.7759 20.3437 52.5037 19.7382Z" fill="#28D05B"/>
<path d="M49.2529 20.459C48.3972 20.2295 47.5067 20.5017 46.9214 21.1365L43.0761 19.9365L40.2313 22.923L39.0234 27.428C39.01 27.4243 38.9966 27.4194 38.9825 27.4158C37.7325 27.0795 36.4471 27.821 36.1114 29.071C35.7757 30.321 36.5167 31.607 37.7667 31.9427C39.0173 32.2784 40.3027 31.5369 40.6384 30.2869C40.7348 29.9268 40.7501 29.5569 40.672 29.1937C40.9112 29.917 41.5045 30.5176 42.2961 30.73C43.5467 31.0651 44.8315 30.3229 45.1666 29.0729C45.2698 28.689 45.274 28.2861 45.1782 27.901C45.2844 28.2696 45.4828 28.6169 45.7733 28.9075C46.6882 29.823 48.1726 29.823 49.0875 28.9075C50.003 27.9919 50.003 26.5082 49.0875 25.5933C48.7988 25.3046 48.4454 25.1013 48.0664 24.9945C49.3084 25.3119 50.5774 24.5709 50.91 23.3295C51.2451 22.0795 50.5035 20.7941 49.2529 20.459Z" fill="#D9435B"/>
<path d="M45.9381 17.1466C44.1949 16.6803 42.6038 18.2807 43.0676 20.0165C42.7966 19.0003 41.8726 18.2801 40.8038 18.2801C40.2045 18.2801 39.6045 18.5089 39.1467 18.9667C38.2312 19.8822 38.2312 21.366 39.1467 22.2809C39.4629 22.5977 39.8456 22.8052 40.2509 22.9029C38.9746 22.5287 37.6636 23.2868 37.3267 24.5465C36.9922 25.7971 37.7344 27.0819 38.985 27.4164C40.2356 27.7509 41.5204 27.0081 41.8549 25.7581C41.9611 25.3607 41.9611 24.9433 41.8549 24.5465C42.1198 25.5182 43.0023 26.2824 44.1187 26.2824C44.1223 26.2824 44.126 26.2818 44.1296 26.2818C46.1908 26.2726 47.2528 23.758 45.7758 22.2815C45.4718 21.977 45.1123 21.7786 44.7357 21.6767C45.9833 22.005 47.2626 21.2635 47.5964 20.0159C47.9309 18.7659 47.1881 17.4811 45.9381 17.1466Z" fill="#FF5368"/>
<path d="M46.1225 4.32324C45.8746 3.72571 45.1892 3.44189 44.5911 3.68909L43.8886 3.98022L44.4263 3.44251C44.884 2.98474 44.884 2.24316 44.4263 1.7854C43.9685 1.32764 43.2269 1.32764 42.7692 1.7854L42.2315 2.32312L42.5226 1.62061C42.7704 1.02307 42.4866 0.337036 41.8884 0.089844C41.2909 -0.157959 40.6049 0.125855 40.3571 0.723999L39.7211 2.26025L43.952 6.4906L45.4883 5.85461C46.0864 5.60681 46.3703 4.92139 46.1225 4.32324Z" fill="#28D05B"/>
<path d="M33.8824 3.49068C36.3232 1.04989 39.9487 1.38131 42.3895 3.8221C44.8303 6.2629 45.1617 9.889 42.7209 12.3298C40.2801 14.7706 33.7817 17.3115 31.3409 14.8707C28.9001 12.4299 31.4416 5.93148 33.8824 3.49068Z" fill="#FF5368"/>
<path d="M42.3895 3.8219C41.8036 3.23596 41.1487 2.77332 40.459 2.43945C41.5155 4.62268 41.2628 7.16174 39.408 9.0166C37.5531 10.8715 33.3563 12.7812 30.3766 12.5219C30.459 13.4636 30.755 14.2845 31.3409 14.8705C33.7817 17.3113 40.2802 14.7704 42.721 12.3296C45.1617 9.88879 44.8303 6.2627 42.3895 3.8219Z" fill="#D9435B"/>
<path d="M30 24.0239C30 28.3391 26.5021 31.8364 22.1875 31.8364C17.8729 31.8364 14.375 28.3391 14.375 24.0239C14.375 19.7094 17.8729 16.2114 22.1875 16.2114C26.5021 16.2114 30 19.7094 30 24.0239Z" fill="#5C87BD"/>
<path d="M25.8008 17.0977C26.366 18.1786 26.687 19.4072 26.687 20.7109C26.687 25.0261 23.1891 28.5234 18.8745 28.5234C17.5702 28.5234 16.3422 28.2024 15.2612 27.6372C16.5656 30.1323 19.1766 31.8364 22.1875 31.8364C26.5021 31.8364 30 28.3391 30 24.0239C30 21.0131 28.2959 18.402 25.8008 17.0977Z" fill="#456EA2"/>
<path d="M73.2959 49.7509C73.3997 49.3346 73.3917 48.8884 73.2581 48.4532L72.1027 44.6947C71.1688 41.6558 69.2108 38.9788 66.5894 37.1562C66.5814 37.1508 66.5735 37.1459 66.5656 37.1404L65.0385 36.1333C63.2581 34.9596 60.8838 36.2419 60.8838 38.377V40.0432C60.8838 41.3317 61.1127 42.5664 61.546 43.709C59.7943 44.2302 58.3704 45.551 57.7307 47.3088C54.6051 48.3971 51.8109 50.4344 49.8114 53.0974C47.6917 55.9203 46.5381 59.2656 46.4569 62.7941C43.1324 64.4884 39.8078 65.6914 36.5387 66.3835C39.1486 60.4149 39.2047 53.5936 34.7553 48.8475C36.6535 47.6635 38.4626 46.4269 40.1459 45.1573C42.5647 43.3342 44.8194 41.3768 46.8494 39.3395C54.6271 31.5575 59.1016 22.9106 62.9584 14.583C63.8837 12.5847 64.3122 11.2511 66.0376 10.3447C67.1894 9.73926 67.9053 8.54968 67.9053 7.23621V2.34546H70.246V8.11206C70.246 9.19055 70.7239 10.1885 71.554 10.8495C72.3169 11.4592 72.865 12.2673 73.18 13.2512C75.7709 21.408 74.4989 30.017 70.8472 37.7544C70.4828 38.5216 71.0382 39.4274 71.9037 39.4274C72.3541 39.4274 72.7698 39.1643 72.9614 38.7578L72.9633 38.7566C74.1773 36.1827 75.1245 33.5826 75.7764 31.0265C77.4048 24.6532 77.1845 18.1298 75.4096 12.5396C74.9604 11.1199 74.1303 9.90039 73.0084 9.01233C72.7442 8.8042 72.5867 8.46667 72.5867 8.11206V2.34546C72.5867 1.05273 71.5369 0.000488281 70.246 0.000488281H67.9053C66.615 0.00170899 65.5658 1.05273 65.5646 2.34546V7.23621C65.5646 7.66895 65.3241 8.07239 64.9542 8.26465C62.5135 9.53845 61.85 11.4067 60.8362 13.5918C57.7698 20.2159 53.3209 29.5549 45.1953 37.6805C41.6852 41.2029 37.6599 44.3322 32.9108 47.2313C30.8771 45.7744 28.4064 44.9285 25.6885 44.8125C24.1663 44.7563 22.6642 44.97 21.1969 45.4479C23.3832 41.1266 26.6217 38.1377 30.8606 36.541C32.1436 37.8276 33.6731 36.0424 32.6178 34.9852L31.994 34.3596C31.6803 34.0459 31.2171 33.936 30.7959 34.0764C26.3031 35.5773 22.677 38.4941 20.1105 42.6244C19.7064 39.5507 18.5968 36.4812 15.5408 34.5427L11.6046 32.0452C10.7306 31.491 9.63504 31.5392 8.81289 32.1691C7.9993 32.7916 7.66787 33.8256 7.96817 34.8033L9.12356 38.5625C9.85599 40.9459 11.2207 43.1047 13.0396 44.8052C8.46194 44.832 4.09732 47.1202 1.69314 51.4562C-0.299655 55.0963 -0.538302 59.5311 1.00284 64.2821C2.16006 67.8386 4.25479 71.2383 6.90188 73.8542C9.69363 76.6136 12.8565 78.2262 15.7941 78.3947C16.4038 78.4362 17.0166 78.4246 17.6123 78.3617C18.6469 78.2518 19.6967 78.2518 20.7306 78.3611C21.095 78.4001 21.4637 78.4191 21.8311 78.4191C22.0673 78.4191 22.3035 78.4111 22.5366 78.3953C25.5023 78.2256 28.678 76.5996 31.4771 73.8158C32.8943 72.4065 34.1504 70.7732 35.1892 69.016C38.9441 68.4227 42.768 67.1923 46.5863 65.3472C47.6453 73.601 54.7028 79.9999 63.2239 79.9999C72.4744 79.9999 79.9994 72.4602 79.9994 63.1926C80 57.8691 77.5128 52.9216 73.2959 49.7509ZM11.3605 37.8722L10.2057 34.113C10.1966 34.0844 10.1911 34.0654 10.2344 34.0319C10.3284 33.9604 10.0409 33.8286 14.289 36.5239V36.5245C17.1881 38.3635 17.8388 41.6204 17.9706 45.4912L15.9595 44.1649C13.7726 42.6415 12.1393 40.407 11.3605 37.8722ZM35.1154 63.5552C33.0872 69.7899 27.6013 75.7561 22.3908 76.0546C21.9171 76.0869 21.4417 76.0784 20.9772 76.0295C20.3784 75.9655 19.7754 75.9343 19.1724 75.9343C18.5688 75.9343 17.9657 75.9661 17.3664 76.0295C16.9037 76.0784 16.4283 76.0869 15.9406 76.054C13.5584 75.9172 10.9326 74.5433 8.54556 72.1849C6.16031 69.8271 4.27188 66.7626 3.22879 63.5564C1.89273 59.4365 2.07156 55.6426 3.7427 52.5896C5.5646 49.3029 8.84646 47.3229 12.7405 47.1562C14.5423 47.0903 16.3221 47.4907 18.0402 48.3446L18.5285 48.6663C18.985 48.9672 19.6161 48.9232 20.0244 48.4868C21.8286 47.5353 23.7055 47.0885 25.5963 47.1562C32.8815 47.4675 38.1555 54.1838 35.1154 63.5552ZM63.2245 38.377C63.2245 38.1053 63.5224 37.9418 63.7519 38.0925C65.1587 39.0203 66.9562 40.02 68.5395 42.5164C68.5742 42.8405 68.7415 43.1456 69.0204 43.3464C69.3634 43.9971 69.6491 44.6782 69.8657 45.3844L71.0211 49.1429C71.0297 49.1716 71.0358 49.1912 70.9918 49.2241C70.9345 49.2681 70.8997 49.2461 70.874 49.2302L66.9373 46.7321C62.9309 44.1906 63.2245 40.4949 63.2245 38.377ZM63.2245 77.6549C55.2655 77.6549 48.7897 71.1669 48.7897 63.1926C48.7897 57.3625 52.1881 52.2368 57.403 49.9529C57.4921 50.7958 57.7649 51.6143 58.2141 52.3589C58.4339 52.7233 58.8208 52.9247 59.2169 52.9247C59.4232 52.9247 59.632 52.8698 59.8212 52.7556C60.3742 52.4205 60.5518 51.6991 60.2173 51.1449C59.7388 50.3521 59.5941 49.4152 59.8108 48.507C60.0946 47.3168 60.9546 46.3964 62.0539 46.0094V49.2797C62.0539 49.9211 62.5482 50.4814 63.1885 50.5004C63.8513 50.5205 64.3952 49.9883 64.3952 49.3285V47.7562C65.1276 48.3885 65.633 48.6809 66.7322 49.3785C66.7237 49.9993 66.5534 50.6127 66.2317 51.1449C65.8972 51.6991 66.0742 52.4205 66.6278 52.7556C66.817 52.8698 67.0258 52.9247 67.2321 52.9247C67.6282 52.9247 68.0145 52.7233 68.2349 52.3589C68.537 51.859 68.7598 51.3164 68.9002 50.7537L69.6216 51.2114C70.0269 51.469 70.4798 51.5959 70.9308 51.5959C71.1847 51.5959 71.438 51.5551 71.6828 51.4745C75.437 54.196 77.6593 58.5259 77.6593 63.1926C77.6593 71.1669 71.1841 77.6549 63.2245 77.6549Z" fill="#1A1A1A"/>
<path d="M22.1552 33.0297C27.1027 33.0297 31.1279 28.9971 31.1279 24.0398C31.1279 19.0825 27.1027 15.0493 22.1552 15.0493C17.207 15.0493 13.1824 19.0825 13.1824 24.0398C13.1824 28.9971 17.207 33.0297 22.1552 33.0297ZM22.1552 17.3949C25.8118 17.3949 28.7872 20.3759 28.7872 24.0398C28.7872 27.7037 25.8118 30.6847 22.1552 30.6847C18.4979 30.6847 15.5231 27.7037 15.5231 24.0398C15.5231 20.3759 18.4979 17.3949 22.1552 17.3949Z" fill="#1A1A1A"/>
<path d="M19.8035 23.3057C20.0317 23.5346 20.3314 23.6487 20.6311 23.6487C20.9302 23.6487 21.2299 23.5346 21.4587 23.3057L21.8011 22.9621L22.1442 23.3057C22.3724 23.5346 22.6721 23.6487 22.9718 23.6487C23.2715 23.6487 23.5706 23.5346 23.7994 23.3057C24.2566 22.8474 24.2566 22.1052 23.7994 21.6474L23.4564 21.3038L23.7994 20.9601C24.2566 20.5024 24.2566 19.7596 23.7994 19.3018C23.3423 18.8441 22.6013 18.8441 22.1442 19.3018L21.8011 19.6454L21.4587 19.3018C21.0016 18.8441 20.2606 18.8441 19.8035 19.3018C19.3463 19.7596 19.3463 20.5024 19.8035 20.9601L20.1459 21.3038L19.8035 21.6474C19.3463 22.1052 19.3463 22.8474 19.8035 23.3057Z" fill="#1A1A1A"/>
<path d="M43.49 13.1666C45.4443 11.208 45.9631 8.48523 45.0818 6.0011L45.426 5.85828C46.0229 5.61047 46.3067 4.92505 46.0589 4.32629C45.8117 3.72815 45.1269 3.44434 44.53 3.69214L43.9642 3.92651C43.9526 3.91126 43.9422 3.896 43.9306 3.88074L44.3652 3.44495C44.8224 2.98718 44.8224 2.24438 44.3652 1.78662C43.9081 1.32886 43.1671 1.32886 42.7099 1.78662L42.2741 2.22363C42.2589 2.21204 42.2442 2.20105 42.229 2.19006L42.464 1.62183C42.7112 1.02368 42.4279 0.337647 41.8304 0.089844C41.2341 -0.157959 40.5487 0.125855 40.3015 0.723999L40.1599 1.06763C37.6599 0.171631 34.9615 0.705689 33.0072 2.6637C30.2746 5.40173 27.3895 12.6234 30.4693 15.7094C33.5675 18.8142 40.7898 15.8723 43.49 13.1666ZM31.8634 9.50757C32.4279 7.51782 33.5528 5.43408 34.6624 4.32263C36.6473 2.3335 39.5343 2.68079 41.5033 4.65405C43.5815 6.73596 43.7207 9.61865 41.8347 11.5083C40.7251 12.6204 38.645 13.7471 36.6595 14.3129C34.5758 14.9061 32.8802 14.8091 32.124 14.051C31.3684 13.2942 31.2707 11.5956 31.8634 9.50757Z" fill="#1A1A1A"/>
<path d="M38.1866 9.63568C38.6438 9.17792 38.6438 8.43512 38.1866 7.97736C37.7295 7.51959 36.9885 7.51959 36.5314 7.97736C36.0742 8.43512 36.0742 9.17792 36.5314 9.63568C36.9885 10.0934 37.7295 10.0934 38.1866 9.63568Z" fill="#1A1A1A"/>
<path d="M34.8761 12.9523C35.3333 12.4946 35.3333 11.7518 34.8761 11.294C34.4189 10.8362 33.678 10.8362 33.2208 11.294C32.7643 11.7518 32.7643 12.4946 33.2208 12.9523C33.678 13.4107 34.4189 13.4107 34.8761 12.9523Z" fill="#1A1A1A"/>
<path d="M34.8761 9.63568C35.3333 9.17792 35.3333 8.43512 34.8761 7.97736C34.4189 7.51959 33.678 7.51959 33.2208 7.97736C32.7643 8.43512 32.7643 9.17792 33.2208 9.63568C33.678 10.0934 34.4189 10.0934 34.8761 9.63568Z" fill="#1A1A1A"/>
<path d="M38.1866 12.9523C38.6438 12.4946 38.6438 11.7518 38.1866 11.294C37.7295 10.8362 36.9885 10.8362 36.5314 11.294C36.0742 11.7518 36.0742 12.4946 36.5314 12.9523C36.9885 13.4107 37.7295 13.4107 38.1866 12.9523Z" fill="#1A1A1A"/>
<path d="M41.4966 9.63568C41.9537 9.17792 41.9537 8.43512 41.4966 7.97736C41.04 7.51959 40.2985 7.51959 39.8419 7.97736C39.3848 8.43512 39.3848 9.17792 39.8419 9.63568C40.2985 10.0934 41.04 10.0934 41.4966 9.63568Z" fill="#1A1A1A"/>
<path d="M38.1866 6.31903C38.6438 5.86127 38.6438 5.11847 38.1866 4.66071C37.7295 4.20294 36.9885 4.20294 36.5314 4.66071C36.0742 5.11908 36.0742 5.86127 36.5314 6.31903C36.9885 6.77679 37.7295 6.77679 38.1866 6.31903Z" fill="#1A1A1A"/>
<path d="M43.4644 16.3995C43.0066 16.6742 42.619 17.049 42.3297 17.4866C41.0468 16.8469 39.4074 17.0056 38.2654 18.15C37.1399 19.2773 36.9599 20.9167 37.6142 22.2229C36.9019 22.6892 36.3715 23.407 36.1438 24.259C35.9186 25.1038 36.0144 25.979 36.4051 26.7523C35.5927 27.2827 35.0318 28.1311 34.8627 29.0924C34.5417 30.9137 35.7001 32.6819 37.4988 33.1183C38.9948 33.4808 40.4682 32.8339 41.2641 31.626C42.2882 32.1436 43.5596 32.1564 44.6424 31.5057C45.1032 31.2286 45.4926 30.8502 45.7831 30.4071C47.0606 31.0486 48.7 30.9064 49.8487 29.7559C50.9674 28.6346 51.1542 26.9977 50.5005 25.6873C51.2506 25.1984 51.7945 24.433 52.0032 23.5187C52.1753 22.7649 52.0819 21.9989 51.7847 21.3257C52.3718 21.0999 52.6789 20.4468 52.4707 19.8474C52.2583 19.2352 51.5912 18.913 50.9802 19.1248L50.2906 19.3652L50.7526 18.9026C51.2097 18.4448 51.2097 17.702 50.7526 17.2443C50.2954 16.7865 49.5545 16.7865 49.0973 17.2443L48.6353 17.7069L48.8751 17.016C49.0875 16.4044 48.7653 15.7361 48.1543 15.5231C47.5592 15.3162 46.9104 15.6189 46.6822 16.2018C45.6818 15.7617 44.4861 15.7867 43.4644 16.3995ZM46.4008 19.726C46.3776 19.812 46.366 19.8987 46.3623 19.9841L45.9369 20.4108C44.8725 21.4771 46.4264 23.2367 47.6844 21.9763C48.0902 21.568 48.5285 21.4832 48.9557 21.6272C50.0397 21.9922 50.0067 23.6108 48.8422 23.8818C47.6886 24.1498 47.3029 25.5957 48.1665 26.4093C48.396 26.6254 48.5309 26.936 48.5358 27.2601C48.551 28.2996 47.251 28.8641 46.5058 28.0688C45.7025 27.2095 44.2536 27.5983 43.9881 28.7463C43.7812 29.6374 42.6477 29.9896 41.9886 29.2847C41.1835 28.4235 39.7382 28.8141 39.4696 29.967C39.3341 30.5487 38.7268 31.0034 38.0493 30.8386C37.0642 30.6 36.8091 29.2609 37.7021 28.703C38.1977 28.3936 38.6212 28.5791 38.7952 28.6053C40.2375 28.9166 41.6492 28.2623 42.4036 27.0508C42.508 27.1069 42.6166 27.1582 42.7283 27.2046C45.1923 28.2202 47.8601 26.1066 46.5406 24.7839C46.0834 24.3262 45.3424 24.3262 44.8853 24.7839C44.1693 25.5011 42.9889 25.0079 42.8943 24.093C42.8131 22.2125 40.495 22.5183 40.5469 23.9923C40.5585 24.9756 40.7813 25.5927 40.166 26.0968C39.8816 26.33 39.5032 26.3885 39.2523 26.3043C38.9759 26.3043 38.1708 25.7428 38.4052 24.8651C38.5169 24.4458 38.8495 24.1241 39.2725 24.0247C40.4212 23.7555 40.8124 22.3059 39.9494 21.499C39.718 21.283 39.5819 20.9723 39.5764 20.647C39.5587 19.6033 40.8759 19.0436 41.6053 19.8218C42.4085 20.6793 43.8526 20.2924 44.1211 19.1467C44.1925 18.8446 44.3909 18.5773 44.6656 18.4125C45.5469 17.8839 46.676 18.6957 46.4008 19.726Z" fill="#1A1A1A"/>
<path d="M57.1381 55.3906C57.1381 56.0382 56.6132 56.5625 55.9662 56.5625C55.3186 56.5625 54.7943 56.0382 54.7943 55.3906C54.7943 54.7437 55.3186 54.2188 55.9662 54.2188C56.6132 54.2188 57.1381 54.7437 57.1381 55.3906Z" fill="#1A1A1A"/>
<path d="M60.2631 59.7661C60.2631 60.4131 59.7382 60.938 59.0912 60.938C58.4442 60.938 57.9193 60.4131 57.9193 59.7661C57.9193 59.1185 58.4442 58.5942 59.0912 58.5942C59.7382 58.5942 60.2631 59.1185 60.2631 59.7661Z" fill="#1A1A1A"/>
<path d="M54.0125 63.2036C54.0125 63.8506 53.4882 64.3755 52.8406 64.3755C52.1936 64.3755 51.6687 63.8506 51.6687 63.2036C51.6687 62.5566 52.1936 62.0317 52.8406 62.0317C53.4882 62.0317 54.0125 62.5566 54.0125 63.2036Z" fill="#1A1A1A"/>
</g>
<defs>
<clipPath id="clip0_240_3115">
<rect width="80" height="80" fill="white"/>
</clipPath>
</defs>
</svg>
