<svg width="80" height="80" viewBox="0 0 80 80" fill="none" xmlns="http://www.w3.org/2000/svg">
<g clip-path="url(#clip0_1_9285)">
<path d="M53.2587 62.3118C48.3826 62.1919 45.2856 59.8368 43.5028 57.6885C41.9061 55.7652 41.2048 53.1196 40.3931 50.0558C39.2639 45.7939 37.8583 40.4894 33.4503 35.6056C29.0802 30.7639 23.6761 28.6553 18.9081 26.795C11.8689 24.0492 9.01244 22.6854 9.01244 16.433C9.01244 15.7493 9.01488 14.2675 10.2746 12.5613C4.68505 16.2581 1.10595 20.9174 1.19201 26.0385C1.41601 39.3647 15.2045 36.91 23.4308 46.0245C32.1301 55.663 25.3033 65.0387 42.9272 71.8941C52.1863 75.4955 67.6977 70.7315 75.4748 51.4892C75.2832 51.7326 63.5345 62.5643 53.2587 62.3118Z" fill="#EA3942"/>
<path d="M78.8092 37.5354C78.8092 53.6534 65.2728 70.2379 47.8027 66.7196C29.2175 62.9764 36.4972 51.2108 27.7985 41.5723C19.5715 32.4578 4.89746 35.9393 4.89746 21.5876C4.89746 8.58425 27.3621 5.11189 47.8027 8.35186C64.7168 11.0329 78.8092 21.4175 78.8092 37.5354Z" fill="#F3E8D7"/>
<path d="M67.5323 16.2C70.5206 20.3609 72.2607 25.3132 72.2607 30.9743C72.2607 47.0916 58.7244 63.6761 41.2537 60.1579C38.6157 59.6271 36.4996 58.9336 34.7845 58.1086C36.524 61.9405 39.7125 65.0906 47.8027 66.7198C65.2728 70.238 78.8092 53.6535 78.8092 37.5356C78.8092 28.511 74.3903 21.2843 67.5323 16.2Z" fill="#E5D6C1"/>
<path d="M52.5067 61.4286C49.8963 61.5418 47.2827 61.1045 44.8834 60.0306C43.2593 59.3035 41.723 58.2798 40.6824 56.8335C39.5508 55.2612 39.0863 53.3189 38.6017 51.4421C37.5708 47.4481 36.3074 43.4327 33.9527 40.0484C30.4755 35.0508 24.9188 31.8769 19.2108 29.775C17.201 29.035 15.1148 28.3886 13.374 27.1386C11.6333 25.8892 10.2643 23.8717 10.4389 21.7332C10.6635 18.9855 13.2398 17.0597 15.752 15.9351C22.6728 12.8376 30.6806 12.3857 38.1494 12.9495C45.7642 13.5238 53.9014 14.9212 60.6629 18.6326C67.3401 22.2976 72.2956 28.6277 72.9621 36.3326C73.6176 43.9121 70.1013 52.0915 64.2279 56.9209C60.943 59.6221 56.7292 61.2458 52.5067 61.4286Z" fill="#FC4E51"/>
<path d="M72.962 36.3327C72.3724 29.5176 68.4259 23.7795 62.901 20.0081C64.7858 22.853 66.0095 26.1174 66.3177 29.6754C66.9733 37.2549 63.457 45.4343 57.5836 50.2637C54.2981 52.9649 50.0842 54.5885 45.8618 54.7714C43.6114 54.8686 41.3593 54.5561 39.2438 53.7801C39.5868 54.8668 40.0201 55.9131 40.6824 56.8335C41.723 58.2798 43.2593 59.3036 44.8834 60.0307C47.2821 61.1046 49.8956 61.5418 52.5067 61.4287C56.7285 61.2458 60.943 59.6222 64.2279 56.921C70.1019 52.0916 73.6175 43.9122 72.962 36.3327Z" fill="#EA3942"/>
<path d="M37.5525 23.4975C37.5525 26.2017 35.3644 28.3941 32.6654 28.3941C29.9664 28.3941 27.7783 26.2017 27.7783 23.4975C27.7783 20.7932 29.9664 18.6008 32.6654 18.6008C35.3644 18.6008 37.5525 20.7932 37.5525 23.4975Z" fill="#F3E8D7"/>
<path d="M70.4334 17.0077C64.8029 12.0683 56.8323 8.57573 47.9883 7.17406C40.1465 5.93079 32.0441 5.68923 25.1734 6.49464C17.5903 7.38321 11.6602 9.49794 8.0243 12.6101C7.83204 12.7746 7.6471 12.9422 7.46766 13.1122C2.50611 16.9906 -0.0756743 21.4659 0.0018404 26.0586C0.068979 30.0551 1.3141 33.1299 3.80921 35.4587C5.99549 37.4994 8.84828 38.7555 11.8689 40.085C15.6183 41.7356 19.4953 43.4418 22.5482 46.8249C25.6726 50.2868 26.6907 53.758 27.6746 57.1154C28.5047 59.9444 29.3622 62.8706 31.4539 65.5889C33.7915 68.6277 37.3004 70.9846 42.4964 73.0058C44.527 73.7959 46.7694 74.1842 49.0991 74.1842C52.7832 74.1842 56.6858 73.2119 60.3082 71.3155C65.1764 68.7659 71.9361 63.3513 76.5363 52.0377C78.7598 47.5422 80 42.5275 80 37.5355C80 29.597 76.6919 22.4988 70.4334 17.0077ZM59.2047 69.2013C53.891 71.9845 47.9669 72.5752 43.3582 70.7822C32.9804 66.7454 31.5802 61.971 29.9591 56.4427C28.9484 52.9966 27.8034 49.0913 24.3134 45.2251C20.9186 41.4635 16.6193 39.5707 12.8259 37.9012C7.05995 35.3627 2.5055 33.358 2.3816 26.0182C2.34986 24.1267 2.88636 22.3875 3.73231 20.8268C3.71705 21.0782 3.70667 21.3307 3.70667 21.587C3.70667 25.8855 4.97621 29.1225 7.58729 31.4836C9.8755 33.5525 12.8644 34.7187 16.0285 35.9528C19.8932 37.4603 23.8892 39.0191 26.9153 42.3722C29.953 45.7382 30.929 49.4197 31.872 52.9801C32.7258 56.2011 33.5315 59.2435 35.73 61.8915C38.1873 64.852 41.9489 66.7576 47.5678 67.889C49.2017 68.218 50.835 68.3806 52.4536 68.3806C57.1185 68.3806 61.6596 67.0291 65.7221 64.4197C63.4204 66.6653 61.1487 68.1831 59.2047 69.2013ZM74.4769 50.8397C74.4367 50.9027 74.4007 50.9699 74.3714 51.0415C74.3579 51.0757 74.3433 51.1081 74.3298 51.1418C72.4768 54.8349 69.9054 58.1409 66.7804 60.7051C63.6469 63.2767 58.8379 66.0109 52.5586 66.0109C51.1273 66.0109 49.6185 65.8684 48.0371 65.5504C37.0819 63.344 35.7984 58.5005 34.1736 52.3679C33.2044 48.7115 32.1063 44.567 28.6817 40.7724C25.2777 37.001 20.8228 35.263 16.8921 33.7298C10.8557 31.3748 6.08766 29.5151 6.08766 21.587C6.08766 18.8118 7.25953 16.4017 9.57093 14.4239C14.1217 10.5284 23.0878 8.40388 33.7122 8.40388C38.1262 8.40388 42.8278 8.77081 47.6166 9.52974C56.0217 10.8623 63.5681 14.1555 68.8648 18.802C74.5923 23.8271 77.619 30.3052 77.619 37.5355C77.619 42.1135 76.4942 46.7093 74.4769 50.8397Z" fill="#1A1A1A"/>
<path d="M73.0609 38.8467C72.4036 38.7928 71.8298 39.279 71.7749 39.9352C71.2854 45.7571 68.3832 51.6084 64.137 55.4251C62.58 54.1879 61.9684 52.1924 61.0291 49.1219C60.2472 46.5638 59.2737 43.38 57.3779 39.49C55.5695 35.7779 52.2089 32.6297 48.7305 30.1499C51.3599 28.6137 57.7149 25.7223 67.7332 26.173C69.6686 28.7176 70.9809 31.6017 71.5375 34.6551C71.6425 35.2306 72.143 35.6336 72.7069 35.6336C72.7783 35.6336 72.8504 35.6269 72.9224 35.614C73.5694 35.4954 73.9978 34.8741 73.8794 34.2258C73.2239 30.6318 71.6419 27.2536 69.306 24.3157C69.2896 24.2925 69.2713 24.2698 69.2523 24.2472C67.1454 21.6163 64.4324 19.342 61.2348 17.5869C55.3388 14.35 48.0316 12.4988 38.2385 11.7601C28.982 11.0611 21.4679 12.0713 15.2667 14.8465C12.3737 16.1412 10.4334 17.9226 9.63869 19.9701C9.63258 19.986 9.62648 20.0019 9.62038 20.0184C9.42262 20.5419 9.2975 21.0819 9.25234 21.6365C9.0613 23.9732 10.3748 26.4537 12.6807 28.1085C13.9478 29.0185 15.362 29.6166 16.4527 30.0355C17.0661 30.2722 17.7545 29.9646 17.9901 29.3493C18.2257 28.7347 17.9193 28.0443 17.3053 27.8089C16.2885 27.4175 15.108 26.9172 14.0674 26.1693C12.7905 25.2526 11.4783 23.6314 11.6254 21.831C11.6321 21.7521 11.6425 21.6677 11.6565 21.5797C17.2424 21.4726 23.5877 22.5795 26.5961 23.1831C26.5906 23.2871 26.5882 23.3923 26.5882 23.4975C26.5882 26.8548 29.3146 29.5866 32.6654 29.5866C34.8279 29.5866 36.7291 28.4485 37.8064 26.7393C41.7725 28.5024 51.8256 33.5323 55.2387 40.5364C57.052 44.2582 57.995 47.3423 58.7525 49.8202C59.6918 52.8914 60.4187 55.2679 62.2266 56.9337C59.3585 58.8999 55.8765 60.0887 52.4548 60.2373C49.9194 60.3474 47.5354 59.9114 45.3693 58.9421C43.703 58.196 42.4512 57.2524 41.648 56.1363C40.6995 54.8178 40.2728 53.1587 39.8212 51.4023L39.7547 51.143C38.7226 47.1453 37.4243 42.952 34.9298 39.3665C32.229 35.4856 28.0567 32.2768 22.5275 29.8294C21.9263 29.5628 21.2232 29.8355 20.9577 30.4385C20.6922 31.0409 20.9638 31.7448 21.5656 32.0114C26.6895 34.2796 30.5286 37.2132 32.9767 40.7308C35.2564 44.0069 36.4734 47.9587 37.4494 51.7405L37.5159 51.998C38.0023 53.8907 38.5059 55.8482 39.7174 57.5312C40.7691 58.9928 42.3438 60.2 44.3982 61.1198C46.6535 62.1294 49.1022 62.6395 51.6895 62.6395C51.9769 62.6395 52.2669 62.6327 52.558 62.6205C57.0453 62.4254 61.4423 60.7394 64.9457 57.8731C64.9487 57.8706 64.9518 57.8682 64.9542 57.8657C64.964 57.8578 64.9738 57.8504 64.9829 57.8431C70.1465 53.5978 73.5718 46.9784 74.1467 40.1352C74.2023 39.479 73.7158 38.9017 73.0609 38.8467ZM36.3513 23.7678C36.2543 24.4521 36.228 24.8826 35.658 25.6684C34.9854 26.5962 33.8953 27.2016 32.6654 27.2016C30.6403 27.2016 28.9911 25.5614 28.9697 23.5372C29.0466 22.2799 29.5014 21.5845 29.5014 21.5845C30.1496 20.5119 31.3251 19.7933 32.6654 19.7933C34.704 19.7933 36.3623 21.4555 36.3623 23.4975C36.3623 23.5886 36.3574 23.6785 36.3513 23.7678ZM38.6591 24.5016C38.7134 24.1744 38.7427 23.8393 38.7427 23.4975C38.7427 20.1395 36.0163 17.4077 32.6654 17.4077C30.2545 17.4077 28.1671 18.8216 27.1857 20.8648C24.3622 20.2905 18.5193 19.2509 12.9523 19.1891C13.6438 18.4712 14.6826 17.7202 16.2378 17.0242C22.0691 14.4148 29.2072 13.4712 38.0597 14.1384C47.5025 14.8508 54.5032 16.6115 60.0903 19.679C62.1594 20.8146 64.0033 22.1863 65.5841 23.739C54.8981 23.7427 48.5968 27.3074 46.557 28.6889C43.421 26.7014 40.4346 25.2795 38.6591 24.5016Z" fill="#1A1A1A"/>
</g>
<defs>
<clipPath id="clip0_1_9285">
<rect width="80" height="80" fill="white"/>
</clipPath>
</defs>
</svg>
