<svg width="178" height="39" viewBox="0 0 178 39" fill="none" xmlns="http://www.w3.org/2000/svg">
<path d="M31.2749 7.84283C27.4022 7.84283 21.9311 8.16687 19.1352 10.9613C17.9247 12.1718 17.3202 14.1451 17.4771 16.3787C17.4975 16.6737 17.6937 16.9251 17.9756 17.0181C18.256 17.1097 18.5641 17.0239 18.7559 16.7987C20.3108 14.9692 22.2435 13.5029 24.5046 12.4407C24.6964 12.3491 24.9231 12.3418 25.1295 12.4145C25.3111 12.4799 25.4535 12.6034 25.5276 12.7618C25.6816 13.0874 25.6322 13.516 25.1207 13.7572C25.0917 13.7717 25.0655 13.7907 25.0365 13.8037C25.0263 13.8081 25.0147 13.8067 25.006 13.811C19.4346 16.4296 16.6954 20.9984 15.4514 25.6964C14.5446 19.814 12.6294 16.3511 10.8202 14.2252C9.51095 12.5279 8.22341 11.6284 7.47943 11.1198C7.34136 11.0253 6.92435 10.7405 6.7514 10.5676C6.46803 10.2842 6.46803 9.82354 6.7514 9.54017C7.03477 9.25823 7.49687 9.25823 7.81218 9.57212C7.88923 9.64044 8.01272 9.72763 8.16966 9.83226L8.29902 9.91945C9.35108 10.6402 11.31 11.9786 13.0479 14.8602C13.2034 15.1174 13.5042 15.2554 13.7963 15.2002C14.0928 15.1479 14.3252 14.9198 14.3834 14.6248C14.7627 12.6877 14.5927 9.81332 12.8649 8.08553C10.069 5.29254 4.59789 4.96851 0.726671 4.96851C0.32553 4.96844 0 5.29397 0 5.69504C0 9.56769 0.324032 15.0388 3.11846 17.8348C4.28387 19.0002 6.08147 19.5233 7.86736 19.5233C9.32486 19.5233 10.7533 19.1585 11.8476 18.5264C13.3399 21.6187 14.5316 26.2383 14.5316 33.3051C14.5316 33.7061 14.8571 34.0317 15.2582 34.0317C15.6592 34.0317 15.9848 33.7061 15.9848 33.3051C15.9848 29.3627 16.6605 24.6311 19.173 20.7367C20.18 21.7205 21.9137 22.3439 23.8347 22.402C23.9306 22.4049 24.0251 22.4064 24.1195 22.4064C26.0711 22.4064 27.796 21.7946 28.8815 20.7076C31.6773 17.9117 31.9999 12.4406 31.9999 8.56787C32.0015 8.16687 31.6774 7.84283 31.2749 7.84283Z" fill="#00B307"/>
<path d="M50.048 30.788C48.384 30.788 46.88 30.4147 45.536 29.668C44.192 28.9 43.136 27.8333 42.368 26.468C41.6 25.0813 41.216 23.4813 41.216 21.668C41.216 19.876 41.6107 18.2867 42.4 16.9C43.1893 15.5133 44.2667 14.4467 45.632 13.7C46.9973 12.9533 48.5227 12.58 50.208 12.58C51.8933 12.58 53.4187 12.9533 54.784 13.7C56.1493 14.4467 57.2267 15.5133 58.016 16.9C58.8053 18.2867 59.2 19.876 59.2 21.668C59.2 23.46 58.7947 25.0493 57.984 26.436C57.1733 27.8227 56.064 28.9 54.656 29.668C53.2693 30.4147 51.7333 30.788 50.048 30.788ZM50.048 27.62C50.9867 27.62 51.8613 27.396 52.672 26.948C53.504 26.5 54.176 25.828 54.688 24.932C55.2 24.036 55.456 22.948 55.456 21.668C55.456 20.388 55.2107 19.3107 54.72 18.436C54.2293 17.54 53.5787 16.868 52.768 16.42C51.9573 15.972 51.0827 15.748 50.144 15.748C49.2053 15.748 48.3307 15.972 47.52 16.42C46.7307 16.868 46.1013 17.54 45.632 18.436C45.1627 19.3107 44.928 20.388 44.928 21.668C44.928 23.5667 45.408 25.0387 46.368 26.084C47.3493 27.108 48.576 27.62 50.048 27.62ZM65.4943 15.428C66.0276 14.532 66.7316 13.8387 67.6063 13.348C68.5023 12.836 69.5583 12.58 70.7743 12.58V16.356H69.8463C68.4169 16.356 67.3289 16.7187 66.5823 17.444C65.8569 18.1693 65.4943 19.428 65.4943 21.22V30.5H61.8463V12.868H65.4943V15.428ZM89.2635 14.66C88.6875 13.5507 87.8875 12.7187 86.8635 12.164C85.8395 11.588 84.6555 11.3 83.3115 11.3C81.8395 11.3 80.5275 11.6307 79.3755 12.292C78.2235 12.9533 77.3168 13.892 76.6555 15.108C76.0155 16.324 75.6955 17.732 75.6955 19.332C75.6955 20.932 76.0155 22.3507 76.6555 23.588C77.3168 24.804 78.2235 25.7427 79.3755 26.404C80.5275 27.0653 81.8395 27.396 83.3115 27.396C85.2955 27.396 86.9062 26.8413 88.1435 25.732C89.3808 24.6227 90.1382 23.1187 90.4155 21.22H82.0635V18.308H94.3195V21.156C94.0848 22.884 93.4662 24.4733 92.4635 25.924C91.4822 27.3747 90.1915 28.5373 88.5915 29.412C87.0128 30.2653 85.2528 30.692 83.3115 30.692C81.2208 30.692 79.3115 30.212 77.5835 29.252C75.8555 28.2707 74.4795 26.916 73.4555 25.188C72.4528 23.46 71.9515 21.508 71.9515 19.332C71.9515 17.156 72.4528 15.204 73.4555 13.476C74.4795 11.748 75.8555 10.404 77.5835 9.444C79.3328 8.46266 81.2422 7.972 83.3115 7.972C85.6795 7.972 87.7808 8.55866 89.6155 9.732C91.4715 10.884 92.8155 12.5267 93.6475 14.66H89.2635ZM95.7415 21.604C95.7415 19.8333 96.1042 18.2653 96.8295 16.9C97.5762 15.5347 98.5788 14.4787 99.8375 13.732C101.117 12.964 102.525 12.58 104.061 12.58C105.448 12.58 106.653 12.8573 107.677 13.412C108.723 13.9453 109.555 14.6173 110.174 15.428V12.868H113.854V30.5H110.174V27.876C109.555 28.708 108.712 29.4013 107.645 29.956C106.579 30.5107 105.363 30.788 103.997 30.788C102.483 30.788 101.096 30.404 99.8375 29.636C98.5788 28.8467 97.5762 27.7587 96.8295 26.372C96.1042 24.964 95.7415 23.3747 95.7415 21.604ZM110.174 21.668C110.174 20.452 109.917 19.396 109.405 18.5C108.915 17.604 108.264 16.9213 107.453 16.452C106.643 15.9827 105.768 15.748 104.829 15.748C103.891 15.748 103.016 15.9827 102.205 16.452C101.395 16.9 100.733 17.572 100.221 18.468C99.7308 19.3427 99.4855 20.388 99.4855 21.604C99.4855 22.82 99.7308 23.8867 100.221 24.804C100.733 25.7213 101.395 26.4253 102.205 26.916C103.037 27.3853 103.912 27.62 104.829 27.62C105.768 27.62 106.643 27.3853 107.453 26.916C108.264 26.4467 108.915 25.764 109.405 24.868C109.917 23.9507 110.174 22.884 110.174 21.668ZM126.581 12.58C127.968 12.58 129.205 12.868 130.293 13.444C131.402 14.02 132.266 14.8733 132.885 16.004C133.504 17.1347 133.813 18.5 133.813 20.1V30.5H130.197V20.644C130.197 19.0653 129.802 17.86 129.013 17.028C128.224 16.1747 127.146 15.748 125.781 15.748C124.416 15.748 123.328 16.1747 122.517 17.028C121.728 17.86 121.333 19.0653 121.333 20.644V30.5H117.685V12.868H121.333V14.884C121.93 14.1587 122.688 13.5933 123.605 13.188C124.544 12.7827 125.536 12.58 126.581 12.58ZM139.362 10.532C138.701 10.532 138.146 10.308 137.698 9.86C137.25 9.412 137.026 8.85733 137.026 8.196C137.026 7.53467 137.25 6.98 137.698 6.532C138.146 6.084 138.701 5.86 139.362 5.86C140.002 5.86 140.546 6.084 140.994 6.532C141.442 6.98 141.666 7.53467 141.666 8.196C141.666 8.85733 141.442 9.412 140.994 9.86C140.546 10.308 140.002 10.532 139.362 10.532ZM141.154 12.868V30.5H137.506V12.868H141.154ZM143.768 21.668C143.768 19.8547 144.13 18.2653 144.856 16.9C145.602 15.5133 146.626 14.4467 147.928 13.7C149.229 12.9533 150.722 12.58 152.408 12.58C154.541 12.58 156.301 13.092 157.688 14.116C159.096 15.1187 160.045 16.5587 160.536 18.436H156.6C156.28 17.5613 155.768 16.8787 155.064 16.388C154.36 15.8973 153.474 15.652 152.408 15.652C150.914 15.652 149.72 16.1853 148.824 17.252C147.949 18.2973 147.512 19.7693 147.512 21.668C147.512 23.5667 147.949 25.0493 148.824 26.116C149.72 27.1827 150.914 27.716 152.408 27.716C154.52 27.716 155.917 26.788 156.6 24.932H160.536C160.024 26.724 159.064 28.1533 157.656 29.22C156.248 30.2653 154.498 30.788 152.408 30.788C150.722 30.788 149.229 30.4147 147.928 29.668C146.626 28.9 145.602 27.8333 144.856 26.468C144.13 25.0813 143.768 23.4813 143.768 21.668ZM169.611 30.788C168.225 30.788 166.977 30.5427 165.867 30.052C164.779 29.54 163.915 28.8573 163.275 28.004C162.635 27.1293 162.294 26.1587 162.251 25.092H166.027C166.091 25.8387 166.443 26.468 167.083 26.98C167.745 27.4707 168.566 27.716 169.547 27.716C170.571 27.716 171.361 27.524 171.915 27.14C172.491 26.7347 172.779 26.2227 172.779 25.604C172.779 24.9427 172.459 24.452 171.819 24.132C171.201 23.812 170.209 23.46 168.843 23.076C167.521 22.7133 166.443 22.3613 165.611 22.02C164.779 21.6787 164.054 21.156 163.435 20.452C162.838 19.748 162.539 18.82 162.539 17.668C162.539 16.7293 162.817 15.876 163.371 15.108C163.926 14.3187 164.715 13.7 165.739 13.252C166.785 12.804 167.979 12.58 169.323 12.58C171.329 12.58 172.939 13.092 174.155 14.116C175.393 15.1187 176.054 16.4947 176.139 18.244H172.491C172.427 17.4547 172.107 16.8253 171.531 16.356C170.955 15.8867 170.177 15.652 169.195 15.652C168.235 15.652 167.499 15.8333 166.987 16.196C166.475 16.5587 166.219 17.0387 166.219 17.636C166.219 18.1053 166.39 18.5 166.731 18.82C167.073 19.14 167.489 19.396 167.979 19.588C168.47 19.7587 169.195 19.9827 170.155 20.26C171.435 20.6013 172.481 20.9533 173.291 21.316C174.123 21.6573 174.838 22.1693 175.435 22.852C176.033 23.5347 176.342 24.4413 176.363 25.572C176.363 26.5747 176.086 27.4707 175.531 28.26C174.977 29.0493 174.187 29.668 173.163 30.116C172.161 30.564 170.977 30.788 169.611 30.788Z" fill="#002603"/>
</svg>
