<svg width="178" height="38" viewBox="0 0 178 38" fill="none" xmlns="http://www.w3.org/2000/svg">
<path d="M31.2749 7.34283C27.4022 7.34283 21.9311 7.66687 19.1352 10.4613C17.9247 11.6718 17.3202 13.6451 17.4771 15.8787C17.4975 16.1737 17.6937 16.4251 17.9756 16.5181C18.256 16.6097 18.5641 16.5239 18.7559 16.2987C20.3108 14.4692 22.2435 13.0029 24.5046 11.9407C24.6964 11.8491 24.9231 11.8418 25.1295 11.9145C25.3111 11.9799 25.4535 12.1034 25.5276 12.2618C25.6816 12.5874 25.6322 13.016 25.1207 13.2572C25.0917 13.2717 25.0655 13.2907 25.0365 13.3037C25.0263 13.3081 25.0147 13.3067 25.006 13.311C19.4346 15.9296 16.6954 20.4984 15.4514 25.1964C14.5446 19.314 12.6294 15.8511 10.8202 13.7252C9.51095 12.0279 8.22341 11.1284 7.47943 10.6198C7.34136 10.5253 6.92435 10.2405 6.7514 10.0676C6.46803 9.78421 6.46803 9.32354 6.7514 9.04017C7.03477 8.75823 7.49687 8.75823 7.81218 9.07212C7.88923 9.14044 8.01272 9.22763 8.16966 9.33226L8.29902 9.41945C9.35108 10.1402 11.31 11.4786 13.0479 14.3602C13.2034 14.6174 13.5042 14.7554 13.7963 14.7002C14.0928 14.6479 14.3252 14.4198 14.3834 14.1248C14.7627 12.1877 14.5927 9.31332 12.8649 7.58553C10.069 4.79254 4.59789 4.46851 0.726671 4.46851C0.32553 4.46844 0 4.79397 0 5.19504C0 9.06769 0.324032 14.5388 3.11846 17.3348C4.28387 18.5002 6.08147 19.0233 7.86736 19.0233C9.32486 19.0233 10.7533 18.6585 11.8476 18.0264C13.3399 21.1187 14.5316 25.7383 14.5316 32.8051C14.5316 33.2061 14.8571 33.5317 15.2582 33.5317C15.6592 33.5317 15.9848 33.2061 15.9848 32.8051C15.9848 28.8627 16.6605 24.1311 19.173 20.2367C20.18 21.2205 21.9137 21.8439 23.8347 21.902C23.9306 21.9049 24.0251 21.9064 24.1195 21.9064C26.0711 21.9064 27.796 21.2946 28.8815 20.2076C31.6773 17.4117 31.9999 11.9406 31.9999 8.06787C32.0015 7.66687 31.6774 7.34283 31.2749 7.34283Z" fill="#00B307"/>
<path d="M50.048 30.288C48.384 30.288 46.88 29.9147 45.536 29.168C44.192 28.4 43.136 27.3333 42.368 25.968C41.6 24.5813 41.216 22.9813 41.216 21.168C41.216 19.376 41.6107 17.7867 42.4 16.4C43.1893 15.0133 44.2667 13.9467 45.632 13.2C46.9973 12.4533 48.5227 12.08 50.208 12.08C51.8933 12.08 53.4187 12.4533 54.784 13.2C56.1493 13.9467 57.2267 15.0133 58.016 16.4C58.8053 17.7867 59.2 19.376 59.2 21.168C59.2 22.96 58.7947 24.5493 57.984 25.936C57.1733 27.3227 56.064 28.4 54.656 29.168C53.2693 29.9147 51.7333 30.288 50.048 30.288ZM50.048 27.12C50.9867 27.12 51.8613 26.896 52.672 26.448C53.504 26 54.176 25.328 54.688 24.432C55.2 23.536 55.456 22.448 55.456 21.168C55.456 19.888 55.2107 18.8107 54.72 17.936C54.2293 17.04 53.5787 16.368 52.768 15.92C51.9573 15.472 51.0827 15.248 50.144 15.248C49.2053 15.248 48.3307 15.472 47.52 15.92C46.7307 16.368 46.1013 17.04 45.632 17.936C45.1627 18.8107 44.928 19.888 44.928 21.168C44.928 23.0667 45.408 24.5387 46.368 25.584C47.3493 26.608 48.576 27.12 50.048 27.12ZM65.4943 14.928C66.0276 14.032 66.7316 13.3387 67.6063 12.848C68.5023 12.336 69.5583 12.08 70.7743 12.08V15.856H69.8463C68.4169 15.856 67.3289 16.2187 66.5823 16.944C65.8569 17.6693 65.4943 18.928 65.4943 20.72V30H61.8463V12.368H65.4943V14.928ZM89.2635 14.16C88.6875 13.0507 87.8875 12.2187 86.8635 11.664C85.8395 11.088 84.6555 10.8 83.3115 10.8C81.8395 10.8 80.5275 11.1307 79.3755 11.792C78.2235 12.4533 77.3168 13.392 76.6555 14.608C76.0155 15.824 75.6955 17.232 75.6955 18.832C75.6955 20.432 76.0155 21.8507 76.6555 23.088C77.3168 24.304 78.2235 25.2427 79.3755 25.904C80.5275 26.5653 81.8395 26.896 83.3115 26.896C85.2955 26.896 86.9062 26.3413 88.1435 25.232C89.3808 24.1227 90.1382 22.6187 90.4155 20.72H82.0635V17.808H94.3195V20.656C94.0848 22.384 93.4662 23.9733 92.4635 25.424C91.4822 26.8747 90.1915 28.0373 88.5915 28.912C87.0128 29.7653 85.2528 30.192 83.3115 30.192C81.2208 30.192 79.3115 29.712 77.5835 28.752C75.8555 27.7707 74.4795 26.416 73.4555 24.688C72.4528 22.96 71.9515 21.008 71.9515 18.832C71.9515 16.656 72.4528 14.704 73.4555 12.976C74.4795 11.248 75.8555 9.904 77.5835 8.944C79.3328 7.96266 81.2422 7.472 83.3115 7.472C85.6795 7.472 87.7808 8.05866 89.6155 9.232C91.4715 10.384 92.8155 12.0267 93.6475 14.16H89.2635ZM95.7415 21.104C95.7415 19.3333 96.1042 17.7653 96.8295 16.4C97.5762 15.0347 98.5788 13.9787 99.8375 13.232C101.117 12.464 102.525 12.08 104.061 12.08C105.448 12.08 106.653 12.3573 107.677 12.912C108.723 13.4453 109.555 14.1173 110.174 14.928V12.368H113.854V30H110.174V27.376C109.555 28.208 108.712 28.9013 107.645 29.456C106.579 30.0107 105.363 30.288 103.997 30.288C102.483 30.288 101.096 29.904 99.8375 29.136C98.5788 28.3467 97.5762 27.2587 96.8295 25.872C96.1042 24.464 95.7415 22.8747 95.7415 21.104ZM110.174 21.168C110.174 19.952 109.917 18.896 109.405 18C108.915 17.104 108.264 16.4213 107.453 15.952C106.643 15.4827 105.768 15.248 104.829 15.248C103.891 15.248 103.016 15.4827 102.205 15.952C101.395 16.4 100.733 17.072 100.221 17.968C99.7308 18.8427 99.4855 19.888 99.4855 21.104C99.4855 22.32 99.7308 23.3867 100.221 24.304C100.733 25.2213 101.395 25.9253 102.205 26.416C103.037 26.8853 103.912 27.12 104.829 27.12C105.768 27.12 106.643 26.8853 107.453 26.416C108.264 25.9467 108.915 25.264 109.405 24.368C109.917 23.4507 110.174 22.384 110.174 21.168ZM126.581 12.08C127.968 12.08 129.205 12.368 130.293 12.944C131.402 13.52 132.266 14.3733 132.885 15.504C133.504 16.6347 133.813 18 133.813 19.6V30H130.197V20.144C130.197 18.5653 129.802 17.36 129.013 16.528C128.224 15.6747 127.146 15.248 125.781 15.248C124.416 15.248 123.328 15.6747 122.517 16.528C121.728 17.36 121.333 18.5653 121.333 20.144V30H117.685V12.368H121.333V14.384C121.93 13.6587 122.688 13.0933 123.605 12.688C124.544 12.2827 125.536 12.08 126.581 12.08ZM139.362 10.032C138.701 10.032 138.146 9.808 137.698 9.36C137.25 8.912 137.026 8.35733 137.026 7.696C137.026 7.03467 137.25 6.48 137.698 6.032C138.146 5.584 138.701 5.36 139.362 5.36C140.002 5.36 140.546 5.584 140.994 6.032C141.442 6.48 141.666 7.03467 141.666 7.696C141.666 8.35733 141.442 8.912 140.994 9.36C140.546 9.808 140.002 10.032 139.362 10.032ZM141.154 12.368V30H137.506V12.368H141.154ZM143.768 21.168C143.768 19.3547 144.13 17.7653 144.856 16.4C145.602 15.0133 146.626 13.9467 147.928 13.2C149.229 12.4533 150.722 12.08 152.408 12.08C154.541 12.08 156.301 12.592 157.688 13.616C159.096 14.6187 160.045 16.0587 160.536 17.936H156.6C156.28 17.0613 155.768 16.3787 155.064 15.888C154.36 15.3973 153.474 15.152 152.408 15.152C150.914 15.152 149.72 15.6853 148.824 16.752C147.949 17.7973 147.512 19.2693 147.512 21.168C147.512 23.0667 147.949 24.5493 148.824 25.616C149.72 26.6827 150.914 27.216 152.408 27.216C154.52 27.216 155.917 26.288 156.6 24.432H160.536C160.024 26.224 159.064 27.6533 157.656 28.72C156.248 29.7653 154.498 30.288 152.408 30.288C150.722 30.288 149.229 29.9147 147.928 29.168C146.626 28.4 145.602 27.3333 144.856 25.968C144.13 24.5813 143.768 22.9813 143.768 21.168ZM169.611 30.288C168.225 30.288 166.977 30.0427 165.867 29.552C164.779 29.04 163.915 28.3573 163.275 27.504C162.635 26.6293 162.294 25.6587 162.251 24.592H166.027C166.091 25.3387 166.443 25.968 167.083 26.48C167.745 26.9707 168.566 27.216 169.547 27.216C170.571 27.216 171.361 27.024 171.915 26.64C172.491 26.2347 172.779 25.7227 172.779 25.104C172.779 24.4427 172.459 23.952 171.819 23.632C171.201 23.312 170.209 22.96 168.843 22.576C167.521 22.2133 166.443 21.8613 165.611 21.52C164.779 21.1787 164.054 20.656 163.435 19.952C162.838 19.248 162.539 18.32 162.539 17.168C162.539 16.2293 162.817 15.376 163.371 14.608C163.926 13.8187 164.715 13.2 165.739 12.752C166.785 12.304 167.979 12.08 169.323 12.08C171.329 12.08 172.939 12.592 174.155 13.616C175.393 14.6187 176.054 15.9947 176.139 17.744H172.491C172.427 16.9547 172.107 16.3253 171.531 15.856C170.955 15.3867 170.177 15.152 169.195 15.152C168.235 15.152 167.499 15.3333 166.987 15.696C166.475 16.0587 166.219 16.5387 166.219 17.136C166.219 17.6053 166.39 18 166.731 18.32C167.073 18.64 167.489 18.896 167.979 19.088C168.47 19.2587 169.195 19.4827 170.155 19.76C171.435 20.1013 172.481 20.4533 173.291 20.816C174.123 21.1573 174.838 21.6693 175.435 22.352C176.033 23.0347 176.342 23.9413 176.363 25.072C176.363 26.0747 176.086 26.9707 175.531 27.76C174.977 28.5493 174.187 29.168 173.163 29.616C172.161 30.064 170.977 30.288 169.611 30.288Z" fill="white"/>
</svg>
